<svg xmlns="http://www.w3.org/2000/svg" width="100" height="100" viewBox="0 0 500 500">
  <defs>
    <style>
      .cls-1 {
        fill-rule: evenodd;
      }
    </style>
  </defs>
  <path id="Bone_1_copy_8" data-name="Bone 1 copy 8" class="cls-1" d="M220.638,24.124c7.29-.061,7.881,5.051,13.257,6.628,7.482,2.2,19.392.694,28.137,0.68,9.552-.015,11.3-8.784,19.158-7.223,6.69,1.329,9.534,11.083,3.507,15.211v0.17c6.3,4.3,3.145,16.722-6.329,15.3-5.081-.765-6.061-5.326-10.092-6.968-4.169-1.7-24.209-1.672-30.447-.935-8.517,1.006-10.022,8.994-17.276,7.9-7.038-1.059-10.09-11.07-3.934-15.3V39.42C209.505,34.583,213.964,26.1,220.638,24.124Zm0,451.752c7.29,0.061,7.881-5.051,13.257-6.628,7.482-2.2,19.392-.694,28.137-0.68,9.552,0.015,11.3,8.784,19.158,7.223,6.69-1.328,9.534-11.083,3.507-15.211v-0.17c6.3-4.305,3.145-16.722-6.329-15.3-5.081.765-6.061,5.326-10.092,6.968-4.169,1.7-24.209,1.672-30.447.935-8.517-1.006-10.022-8.994-17.276-7.9-7.038,1.059-10.09,11.07-3.934,15.3v0.17C209.505,465.417,213.964,473.9,220.638,475.876ZM309.349,29.9c6.759,2.733,5.348,7.682,9.711,11.2,6.073,4.892,17.651,8.062,25.736,11.4,8.83,3.641,13.8-3.793,20.463.658,5.673,3.788,4.567,13.888-2.581,15.395l-0.065.157c4.171,6.387-3.493,16.653-11.7,11.71-4.4-2.651-3.561-7.24-6.657-10.3-3.2-3.165-21.726-10.809-27.771-12.515-8.255-2.33-12.7,4.474-18.986.69-6.1-3.671-5.085-14.088,2.219-15.637l0.065-.157C295.06,35.3,302.426,29.169,309.349,29.9ZM136.471,447.261c6.712,2.846,9.214-1.651,14.784-1.051,7.753,0.835,18.182,6.78,26.256,10.14,8.819,3.669,7.074,12.438,14.935,14,6.69,1.333,13.049-6.59,9.061-12.711,0.022-.052.043-0.1,0.065-0.157,7.466-1.567,9.305-14.245.006-16.553-4.986-1.238-7.637,2.6-11.99,2.575-4.5-.026-23.006-7.719-28.487-10.788-7.484-4.189-5.817-12.145-12.937-13.912-6.907-1.715-13.558,6.366-9.488,12.626-0.022.052-.043,0.1-0.065,0.157C130.187,433.337,131.061,442.88,136.471,447.261Zm252.7-378.119c5.2,5.111,2,9.144,4.687,14.061,3.738,6.843,13.222,14.2,19.415,20.377,6.765,6.743,14.2,1.775,18.654,8.439,3.792,5.67-1.1,14.578-8.276,13.235l-0.12.121c1.409,7.5-9.6,14.048-15.291,6.34-3.052-4.133-.52-8.051-2.209-12.063-1.747-4.149-15.936-18.3-20.868-22.19-6.735-5.311-13.447-.727-17.805-6.628-4.227-5.725.693-14.962,8.035-13.6l0.12-.12C373.905,68.665,383.056,65.821,389.174,69.143ZM69.737,388.579c5.111,5.2,9.144,2,14.061,4.687,6.843,3.739,14.2,13.222,20.377,19.416,6.742,6.765,1.775,14.2,8.438,18.654,5.671,3.791,14.578-1.1,13.236-8.276l0.12-.121c7.5,1.41,14.048-9.6,6.341-15.291-4.134-3.051-8.052-.52-12.064-2.209-4.149-1.746-18.3-15.935-22.19-20.868-5.311-6.734-.727-13.446-6.628-17.8-5.725-4.228-14.962.693-13.6,8.034l-0.12.12C69.26,373.311,66.415,382.462,69.737,388.579ZM447.944,135.87c2.846,6.711-1.651,9.213-1.051,14.784,0.835,7.753,6.78,18.182,10.14,26.256,3.669,8.818,12.438,7.073,14,14.935,1.333,6.689-6.59,13.049-12.711,9.06l-0.157.065c-1.567,7.466-14.245,9.306-16.553.007-1.238-4.987,2.6-7.638,2.575-11.99-0.026-4.5-7.719-23.006-10.788-28.487-4.189-7.484-12.144-5.818-13.912-12.937-1.715-6.907,6.366-13.558,12.626-9.488l0.157-.065C434.02,129.586,443.563,130.46,447.944,135.87ZM30.579,308.748c2.733,6.758,7.682,5.347,11.2,9.711,4.892,6.072,8.062,17.651,11.4,25.735,3.641,8.831-3.793,13.8.658,20.464,3.788,5.672,13.887,4.567,15.4-2.582l0.157-.065c6.387,4.171,16.653-3.493,11.71-11.7-2.651-4.4-7.24-3.562-10.3-6.657-3.165-3.2-10.809-21.726-12.515-27.772-2.33-8.254,4.474-12.7.69-18.985-3.671-6.1-14.088-5.086-15.637,2.219l-0.157.065C35.981,294.459,29.852,301.825,30.579,308.748Zm445.328-88.106c0.062,7.292-5.051,7.883-6.629,13.262-2.2,7.485-.694,19.4-0.68,28.149,0.016,9.555,8.786,11.3,7.224,19.166-1.328,6.693-11.084,9.537-15.213,3.507h-0.17c-4.305,6.3-16.724,3.147-15.3-6.331,0.765-5.083,5.327-6.063,6.969-10.1,1.7-4.171,1.672-24.219.935-30.46-1.006-8.521-9-10.026-7.9-17.283,1.059-7.041,11.072-10.094,15.3-3.936h0.17C465.447,209.5,473.93,213.964,475.907,220.642Zm-451.814,0c-0.061,7.292,5.052,7.883,6.629,13.262,2.2,7.485.694,19.4,0.68,28.149-0.015,9.555-8.786,11.3-7.224,19.166,1.329,6.693,11.084,9.537,15.213,3.507h0.17c4.306,6.3,16.724,3.147,15.3-6.331-0.765-5.083-5.326-6.063-6.969-10.1-1.7-4.171-1.672-24.219-.935-30.46,1.007-8.521,9-10.026,7.9-17.283-1.059-7.041-11.071-10.094-15.3-3.936h-0.17C34.553,209.5,26.07,213.964,24.093,220.642Zm446.044,88.723c-2.734,6.762-7.683,5.351-11.2,9.716-4.893,6.075-8.066,17.658-11.4,25.746-3.642,8.834,3.793,13.8-.66,20.472-3.789,5.675-13.89,4.57-15.4-2.581l-0.157-.065c-6.389,4.173-16.656-3.493-11.711-11.7,2.652-4.4,7.241-3.564,10.3-6.661,3.166-3.2,10.813-21.735,12.52-27.783,2.331-8.257-4.474-12.7-.688-18.992,3.673-6.1,14.091-5.089,15.64,2.218l0.157,0.065C464.736,295.072,470.866,302.439,470.137,309.365ZM52.715,136.463c-2.848,6.715,1.65,9.217,1.049,14.79-0.836,7.756-6.783,18.189-10.144,26.267-3.671,8.822-12.441,7.077-14.009,14.942-1.334,6.692,6.59,13.053,12.713,9.062l0.157,0.066c1.567,7.468,14.247,9.307,16.557,0,1.239-4.988-2.6-7.64-2.575-11.994,0.027-4.5,7.723-23.015,10.793-28.5,4.191-7.487,12.148-5.821,13.916-12.943,1.716-6.91-6.366-13.562-12.627-9.49l-0.157-.065C66.642,130.176,57.1,131.051,52.715,136.463ZM430.894,389.2c-5.113,5.2-9.146,2-14.065,4.69-6.845,3.74-14.209,13.228-20.385,19.424-6.746,6.767-1.778,14.2-8.444,18.66-5.672,3.793-14.582-1.093-13.238-8.277l-0.12-.12c-7.5,1.411-14.051-9.6-6.34-15.294,4.134-3.053,8.053-.521,12.067-2.211,4.15-1.748,18.307-15.943,22.2-20.877,5.313-6.737.729-13.451,6.632-17.81,5.727-4.23,14.966.691,13.6,8.034l0.121,0.12C431.374,373.931,434.218,383.084,430.894,389.2ZM111.413,69.723c-5.2,5.113-2,9.146-4.69,14.065C102.983,90.633,93.5,98,87.3,104.173c-6.767,6.746-14.2,1.778-18.66,8.444-3.793,5.673,1.094,14.582,8.277,13.238l0.12,0.12c-1.411,7.5,9.6,14.051,15.294,6.341,3.053-4.135.521-8.054,2.211-12.067,1.748-4.151,15.942-18.308,20.877-22.2,6.737-5.314,13.45-.729,17.81-6.632,4.229-5.727-.691-14.966-8.035-13.6l-0.12-.12C126.686,69.243,117.533,66.4,111.413,69.723ZM364.154,447.98c-6.714,2.847-9.217-1.65-14.789-1.05-7.756.836-18.19,6.783-26.267,10.144-8.822,3.671-7.078,12.442-14.942,14.009-6.693,1.334-13.054-6.591-9.063-12.713-0.022-.052-0.044-0.1-0.065-0.157-7.469-1.566-9.308-14.247,0-16.556,4.988-1.239,7.64,2.6,11.995,2.575,4.5-.027,23.015-7.724,28.5-10.793,7.487-4.191,5.821-12.147,12.943-13.916,6.91-1.716,13.563,6.366,9.491,12.627,0.021,0.053.043,0.105,0.065,0.157C370.441,434.053,369.566,443.6,364.154,447.98ZM191.252,30.558c-6.761,2.734-5.35,7.684-9.716,11.2-6.075,4.893-17.658,8.065-25.746,11.4-8.834,3.642-13.8-3.793-20.471.66-5.675,3.789-4.57,13.89,2.58,15.4l0.066,0.157c-4.174,6.389,3.492,16.656,11.7,11.711,4.4-2.652,3.564-7.241,6.661-10.3,3.2-3.165,21.735-10.813,27.783-12.52,8.258-2.331,12.706,4.474,18.993.688,6.1-3.673,5.088-14.091-2.219-15.64-0.021-.052-0.043-0.1-0.065-0.157C205.546,35.959,198.178,29.829,191.252,30.558Z"/>
</svg>
