<svg xmlns="http://www.w3.org/2000/svg" width="100" height="100" viewBox="0 0 500 500">
  <defs>
    <style>
      .cls-1 {
        fill-rule: evenodd;
      }
    </style>
  </defs>
  <path id="psd-dude.com_flower_circle_1" data-name="psd-dude.com(flower circle) 1" class="cls-1" d="M476.9,256.674c-3.288.146-6.894-1.831-10.419-4.45a3.334,3.334,0,0,0,.18-3.609c3.794-2.24,7.569-3.824,10.837-3.349A5.713,5.713,0,1,1,476.9,256.674Zm-3.112-44.09c-3.2.782-7.119-.457-11.086-2.342a3.332,3.332,0,0,0-.524-3.575c3.286-2.934,6.682-5.221,9.98-5.39A5.713,5.713,0,1,1,473.79,212.584Zm-11.847-6.161a3.329,3.329,0,0,0-3.542-.613c-1.781-4.031-2.914-7.966-2.048-11.149a5.715,5.715,0,1,1,11.261,1.945C467.358,199.894,464.972,203.222,461.943,206.423Zm0.088-36.854c-2.982,1.394-7.07.946-11.329-.124a3.334,3.334,0,0,0-1.215-3.4c2.648-3.522,5.53-6.43,8.731-7.241A5.712,5.712,0,1,1,462.031,169.569Zm-16.418-3.627c-2.536-3.6-4.418-7.241-4.193-10.532a5.715,5.715,0,1,1,11.424-.3c0.394,3.274-1.294,7.006-3.637,10.738A3.327,3.327,0,0,0,445.613,165.942Zm-3.331-35.916c-2.654,1.947-6.752,2.3-11.138,2.079a3.331,3.331,0,0,0-1.853-3.1c1.914-3.969,4.176-7.382,7.158-8.8A5.713,5.713,0,1,1,442.282,130.026Zm-16.81-.369c-3.188-3.043-5.74-6.245-6.159-9.517a5.715,5.715,0,1,1,11.148-2.512c1.023,3.135.092,7.124-1.482,11.24A3.327,3.327,0,0,0,425.472,129.657Zm-15.545-18.485c-2.99-1.365-5.312-4.786-7.257-8.7a3.334,3.334,0,0,0,1.805-3.136c4.381-.273,8.473.028,11.175,1.944A5.715,5.715,0,1,1,409.927,111.172Zm-5.485-12.166a3.332,3.332,0,0,0-2.425-2.679c1.1-4.267,2.648-8.056,5.3-10.031a5.713,5.713,0,1,1,7.644,8.489C412.735,97.214,408.787,98.365,404.442,99.006ZM398.4,97.716c-3.722-2.359-6.853-5-7.9-8.126a5.715,5.715,0,1,1,10.44-4.648c1.617,2.874,1.486,6.968.75,11.312A3.329,3.329,0,0,0,398.4,97.716Zm0.205,3.894c-3.389,2.8-6.882,4.954-10.173,4.988a5.712,5.712,0,1,1-1.2-11.36c3.238-.647,7.093.735,11,2.771A3.325,3.325,0,0,0,398.605,101.61ZM379.827,82.862c-3.2-.759-6.141-3.664-8.81-7.126a3.332,3.332,0,0,0,1.162-3.426c4.245-1.119,8.317-1.618,11.34-.264A5.715,5.715,0,1,1,379.827,82.862Zm-7.744-10.869a3.332,3.332,0,0,0-2.9-2.157c0.249-4.4,1.033-8.417,3.245-10.868a5.713,5.713,0,1,1,9.148,6.843C379.87,68.624,376.22,70.52,372.083,71.992ZM374.5,86.62a5.715,5.715,0,1,1-11.428-.15c-0.264-3.3,1.576-6.97,4.057-10.591a3.341,3.341,0,0,0,3.6.057C373.109,79.609,374.863,83.353,374.5,86.62ZM365.906,71.9c-4.11-1.591-7.694-3.573-9.333-6.436a5.714,5.714,0,1,1,9.338-6.587c2.145,2.505,2.811,6.546,2.933,10.951A3.328,3.328,0,0,0,365.906,71.9Zm-0.108.32a3.324,3.324,0,0,0,1.065,3.46c-2.78,3.407-5.789,6.2-9.011,6.869a5.713,5.713,0,1,1-3.383-10.911C357.521,70.374,361.57,70.982,365.8,72.22ZM344.47,60.772c-3.285-.117-6.74-2.39-10.035-5.262a3.332,3.332,0,0,0,.467-3.588c3.944-1.929,7.839-3.216,11.068-2.481A5.715,5.715,0,1,1,344.47,60.772Zm-9.724-9.141a3.333,3.333,0,0,0-3.266-1.547c-0.618-4.362-.637-8.457,1.053-11.293a5.713,5.713,0,1,1,10.312,4.918C341.722,46.8,338.514,49.376,334.746,51.631Zm-6.076,1.12c-4.341-.755-8.244-2-10.413-4.482a5.715,5.715,0,1,1,7.867-8.289c2.594,2.037,4.04,5.868,5.022,10.164A3.33,3.33,0,0,0,328.67,52.751Zm-0.042.335a3.324,3.324,0,0,0,1.722,3.184c-2.059,3.886-4.462,7.211-7.49,8.5A5.713,5.713,0,1,1,317.4,54.735C320.149,52.9,324.239,52.7,328.628,53.086Zm-22.8-6.952c-3.245.523-7.075-1.035-10.866-3.213a3.334,3.334,0,0,0-.238-3.61c3.493-2.658,7.064-4.678,10.375-4.583a5.918,5.918,0,0,1,6.165,5.319A5.932,5.932,0,0,1,305.826,46.134Zm-11.315-7.079a3.331,3.331,0,0,0-3.5-.884c-1.454-4.159-2.268-8.172-1.161-11.283a5.713,5.713,0,1,1,11.07,2.821C300.417,32.964,297.77,36.112,294.511,39.056Zm-5.741,2.279c-4.406.1-8.476-.357-11.086-2.374a5.714,5.714,0,1,1,6.107-9.659c2.94,1.494,5.1,4.972,6.9,9A3.328,3.328,0,0,0,288.77,41.335ZM277.6,460.48c2.8-1.724,6.933-1.751,11.268-1.19a3.334,3.334,0,0,0,1.6,3.245c-2.21,3.792-4.736,7.025-7.832,8.2A5.715,5.715,0,1,1,277.6,460.48Zm-12.892,7.567c-3.08,1.148-7.141.371-11.285-1.022a3.332,3.332,0,0,0-.941-3.493c2.905-3.291,6.011-5.971,9.276-6.527A5.715,5.715,0,1,1,264.706,468.047Zm0-428.791c-3.08,1.149-7.141.371-11.285-1.021a3.332,3.332,0,0,0-.941-3.493c2.905-3.291,6.011-5.971,9.276-6.527a5.919,5.919,0,0,1,7.088,4.008A5.932,5.932,0,0,1,264.706,39.256Zm-16.091-4.9c-2.24-3.794-3.825-7.569-3.349-10.837a5.713,5.713,0,1,1,11.408.6c0.147,3.288-1.831,6.894-4.45,10.419A3.332,3.332,0,0,0,248.615,34.351Zm-0.286.184a3.329,3.329,0,0,0-1.289,3.355c-4.3.964-8.381,1.311-11.336-.156a5.918,5.918,0,0,1-3.378-7.41,5.916,5.916,0,0,1,7.474-3.258C242.976,27.956,245.778,30.943,248.329,34.536ZM221.106,46.975c-3.288-.255-6.617-2.641-9.818-5.67a3.326,3.326,0,0,0,.613-3.542c4.031-1.781,7.967-2.914,11.151-2.048A5.714,5.714,0,1,1,221.106,46.975Zm-9.355-9.514a3.323,3.323,0,0,0-3.2-1.694c-0.444-4.375-.289-8.475,1.514-11.228a5.713,5.713,0,1,1,10.107,5.324C218.91,32.914,215.617,35.347,211.751,37.461Zm-6.117.863c-4.277-.919-8.165-2.326-10.219-4.892a5.715,5.715,0,1,1,8.188-7.974c2.521,2.148,3.814,6.043,4.621,10.357A3.342,3.342,0,0,0,205.634,38.324Zm-0.059.342a3.332,3.332,0,0,0,1.6,3.244c-2.211,3.793-4.737,7.025-7.832,8.2a5.716,5.716,0,1,1-5.039-10.259C197.105,38.131,201.239,38.1,205.575,38.666Zm-5.81,411.114c2.941,1.5,5.1,4.972,6.9,9a3.328,3.328,0,0,0-1.922,3.037c-4.405.1-8.475-.356-11.085-2.374A5.714,5.714,0,1,1,199.765,449.78ZM181.794,56.68c-3.275.394-7.007-1.293-10.739-3.636a3.33,3.33,0,0,0-.093-3.593c3.6-2.536,7.241-4.418,10.533-4.193A5.714,5.714,0,1,1,181.794,56.68Zm-11.038-7.5a3.325,3.325,0,0,0-3.47-1.034c-1.292-4.2-1.944-8.254-.716-11.307a5.713,5.713,0,1,1,10.955,3.24C176.884,43.321,174.132,46.353,170.756,49.183Zm-5.83,2.045c-4.374-.063-8.462-0.681-10.979-2.8a5.715,5.715,0,1,1,6.466-9.423c2.893,1.612,4.924,5.178,6.561,9.251A3.342,3.342,0,0,0,164.926,51.228ZM153.3,450.886c2.744-1.838,6.834-2.036,11.223-1.649a3.323,3.323,0,0,0,1.722,3.184c-2.059,3.886-4.462,7.211-7.49,8.5A5.713,5.713,0,1,1,153.3,450.886Zm-7.85-377.171c-3.136,1.023-7.124.092-11.24-1.481a3.329,3.329,0,0,0-.79-3.507c3.043-3.188,6.246-5.74,9.518-6.159A5.714,5.714,0,1,1,145.453,73.715Zm-15.888-5.55c-2.084-3.872-3.51-7.719-2.9-10.953a5.713,5.713,0,1,1,11.376,1.05c0,3.3-2.11,6.811-4.873,10.243A3.324,3.324,0,0,0,129.565,68.165Zm-1.717,3.479c-4.3.788-8.434,0.976-11.313-.609a5.715,5.715,0,1,1,4.512-10.5c3.152,1.02,5.836,4.123,8.233,7.8A3.341,3.341,0,0,0,127.848,71.643Zm-12.02,18.493a5.914,5.914,0,0,1-2.981,7.588c-2.875,1.617-6.968,1.486-11.313.75a3.329,3.329,0,0,0-1.461-3.284c2.359-3.722,5-6.853,8.126-7.9A5.919,5.919,0,0,1,115.828,90.137ZM96.179,95.395c-2.8-3.389-4.955-6.882-4.989-10.173a5.713,5.713,0,1,1,11.361-1.2c0.648,3.239-.734,7.092-2.771,11A3.325,3.325,0,0,0,96.179,95.395Zm-1,3.748c-4.066,1.616-8.079,2.61-11.213,1.619a5.715,5.715,0,1,1,2.367-11.18c3.29,0.382,6.531,2.9,9.6,6.036A3.341,3.341,0,0,0,95.177,99.142Zm-7.934,20.2a5.914,5.914,0,0,1-1.45,8.022c-2.506,2.145-6.547,2.811-10.952,2.933a3.328,3.328,0,0,0-2.071-2.938c1.591-4.11,3.573-7.693,6.436-9.332A5.917,5.917,0,0,1,87.243,119.347Zm-18.253,8.974c-3.407-2.78-6.2-5.788-6.87-9.01a5.713,5.713,0,1,1,10.912-3.383c1.264,3.051.657,7.1-.582,11.328A3.324,3.324,0,0,0,68.989,128.321Zm-0.255,3.871c-3.674,2.374-7.418,4.129-10.685,3.766a5.715,5.715,0,1,1,.15-11.427c3.3-.264,6.97,1.576,10.592,4.056A3.341,3.341,0,0,0,68.734,132.192Zm-4.028,21.685a5.915,5.915,0,0,1,.15,8.151c-2.037,2.594-5.869,4.039-10.165,5.021a3.33,3.33,0,0,0-2.607-2.475c0.755-4.341,2-8.244,4.483-10.412A5.919,5.919,0,0,1,64.707,153.877ZM48.566,166.254c-3.886-2.059-7.211-4.462-8.5-7.49A5.713,5.713,0,1,1,50.1,153.309c1.837,2.744,2.035,6.834,1.649,11.222A3.325,3.325,0,0,0,48.566,166.254Zm-0.142.3a3.34,3.34,0,0,0,.65,3.546c-3.138,3.049-6.465,5.5-9.74,5.787a5.715,5.715,0,1,1-2.092-11.235C40.429,163.745,44.386,164.83,48.424,166.553ZM38.836,204.77a3.326,3.326,0,0,0-2.789,2.308c-4.212-1.265-7.941-2.976-9.795-5.7a5.713,5.713,0,1,1,8.787-7.3C37.375,196.417,38.363,200.39,38.836,204.77Zm-2.87,2.629a3.342,3.342,0,0,0,1.327,3.353c-2.486,3.6-5.273,6.653-8.431,7.568a5.715,5.715,0,1,1-4.234-10.615C27.578,206.2,31.671,206.494,35.966,207.4ZM28.16,237.392c2.748,1.832,4.5,5.534,5.818,9.737a3.324,3.324,0,0,0-2.283,2.809c-4.378-.415-8.37-1.363-10.721-3.666A5.713,5.713,0,1,1,28.16,237.392Zm-7.539,15.4c2.6-2.056,6.669-2.567,11.058-2.521a3.342,3.342,0,0,0,1.958,3.028c-1.732,4.017-3.867,7.557-6.784,9.073A5.715,5.715,0,1,1,20.621,252.79Zm9.228,28.035c3.052,1.263,5.485,4.556,7.6,8.421a3.325,3.325,0,0,0-1.694,3.2c-4.375.443-8.475,0.288-11.229-1.514A5.713,5.713,0,1,1,29.848,280.825ZM35.8,292.773a3.342,3.342,0,0,0,2.509,2.59c-0.919,4.277-2.326,8.165-4.892,10.218a5.715,5.715,0,1,1-7.974-8.187C27.592,294.873,31.487,293.581,35.8,292.773Zm4.266,30.7c3.24,0.641,6.272,3.393,9.1,6.769a3.325,3.325,0,0,0-1.034,3.47c-4.2,1.292-8.254,1.943-11.308.715A5.712,5.712,0,1,1,40.068,323.47Zm8.179,10.55a3.342,3.342,0,0,0,2.968,2.048c-0.063,4.374-.681,8.462-2.8,10.979A5.715,5.715,0,1,1,39,340.582C40.608,337.688,44.174,335.657,48.247,334.02Zm-3-14.519a5.715,5.715,0,1,1,11.424-.3c0.394,3.274-1.293,7.006-3.637,10.738a3.33,3.33,0,0,0-3.594.093C46.9,326.429,45.019,322.792,45.243,319.5Zm9.186,14.352c4.153,1.424,7.817,3.268,9.581,6.072a5.716,5.716,0,1,1-9.073,6.951c-2.24-2.406-3.076-6.456-3.375-10.817A3.332,3.332,0,0,0,54.429,333.853Zm3.82,29.1c3.3,0,6.812,2.11,10.244,4.872a3.324,3.324,0,0,0-.34,3.6c-3.873,2.084-7.72,3.51-10.954,2.9A5.713,5.713,0,1,1,58.25,362.951Zm10.073,8.761a3.341,3.341,0,0,0,3.309,1.432c0.788,4.3.976,8.433-.61,11.313a5.715,5.715,0,1,1-10.5-4.512C61.542,376.793,64.645,374.109,68.323,371.712Zm6.032-1.365c4.35,0.59,8.3,1.687,10.577,4.1a5.716,5.716,0,1,1-7.55,8.581c-2.665-1.925-4.271-5.735-5.412-9.955A3.333,3.333,0,0,0,74.355,370.347Zm9.658,28.092c3.239-.647,7.093.735,11,2.771a3.324,3.324,0,0,0,.373,3.6c-3.389,2.8-6.882,4.955-10.174,4.988A5.712,5.712,0,1,1,84.012,398.439Zm11.595,6.618a3.341,3.341,0,0,0,3.526.756c1.616,4.065,2.61,8.078,1.62,11.213a5.716,5.716,0,1,1-11.182-2.368C89.953,411.368,92.47,408.128,95.607,405.057Zm16.129-7.071c-2.222,2.429-6.17,3.58-10.515,4.221a3.331,3.331,0,0,0-2.425-2.679c1.1-4.267,2.648-8.057,5.3-10.031A5.713,5.713,0,1,1,111.736,397.986ZM101.463,98.806c4.267,1.1,8.057,2.648,10.031,5.295a5.713,5.713,0,1,1-8.49,7.644c-2.429-2.222-3.58-6.17-4.221-10.514A3.334,3.334,0,0,0,101.463,98.806Zm-12.8,15.809a5.931,5.931,0,0,1-2.048-7.9c1.366-2.99,4.787-5.312,8.7-7.257a3.334,3.334,0,0,0,3.136,1.805c0.273,4.381-.028,8.472-1.944,11.174A5.918,5.918,0,0,1,88.664,114.615Zm9.8,284.841a3.331,3.331,0,0,0-3.285,1.461c-3.722-2.358-6.853-5-7.9-8.125a5.715,5.715,0,1,1,10.44-4.648C99.332,391.019,99.2,395.112,98.464,399.456ZM85.525,367.939c-2.655,1.946-6.752,2.3-11.138,2.078a3.332,3.332,0,0,0-1.853-3.1c1.914-3.969,4.176-7.381,7.158-8.8A5.713,5.713,0,1,1,85.525,367.939Zm-10.69-237.3c4.4,0.249,8.418,1.032,10.869,3.245a5.713,5.713,0,1,1-6.843,9.147c-2.814-1.707-4.71-5.356-6.183-9.494A3.331,3.331,0,0,0,74.835,130.642ZM61.808,141.284c0.759-3.2,3.664-6.14,7.127-8.809a3.334,3.334,0,0,0,3.427,1.162c1.119,4.244,1.618,8.316.264,11.339A5.716,5.716,0,1,1,61.808,141.284Zm-8.894,29.522c1.929,3.943,3.217,7.838,2.481,11.067a5.716,5.716,0,1,1-11.331-1.5c0.117-3.285,2.39-6.74,5.262-10.035A3.335,3.335,0,0,0,52.914,170.806Zm-3.437,21a5.915,5.915,0,0,1,1.73,7.967c-1.494,2.94-4.972,5.1-9,6.9a3.329,3.329,0,0,0-3.038-1.922c-0.1-4.405.357-8.475,2.375-11.084A5.919,5.919,0,0,1,49.477,191.8ZM41.2,210.7c2.659,3.493,4.678,7.064,4.583,10.375a5.917,5.917,0,0,1-5.319,6.164,5.932,5.932,0,0,1-6.087-5.435c-0.523-3.245,1.035-7.075,3.213-10.866A3.332,3.332,0,0,0,41.2,210.7ZM34.46,235.705A5.714,5.714,0,1,1,45.129,239.8c-0.889,3.176-3.876,5.978-7.469,8.529A3.331,3.331,0,0,0,34.3,247.04C33.34,242.74,32.993,238.66,34.46,235.705Zm-1.521,29c-1.149-3.079-.371-7.14,1.021-11.284a3.333,3.333,0,0,0,3.494-.941c3.291,2.905,5.971,6.011,6.527,9.276a5.918,5.918,0,0,1-4.008,7.087A5.932,5.932,0,0,1,32.94,264.705ZM35.7,277.947a5.715,5.715,0,1,1,11.261,1.945c-0.255,3.288-2.641,6.616-5.67,9.817a3.33,3.33,0,0,0-3.542-.613C35.968,285.065,34.836,281.13,35.7,277.947Zm11.845,31.435a5.932,5.932,0,0,1-7.7-2.692c-1.725-2.8-1.751-6.933-1.19-11.268a3.332,3.332,0,0,0,3.244-1.6c3.793,2.211,7.025,4.737,8.2,7.832A5.917,5.917,0,0,1,47.546,309.382Zm5.592-13.512c-3.2.782-7.119-.458-11.086-2.342a3.332,3.332,0,0,0-.524-3.575c3.287-2.934,6.683-5.221,9.981-5.39A5.713,5.713,0,1,1,53.138,295.87Zm-4.456-50.6a5.713,5.713,0,1,1-.6,11.408c-3.288.146-6.894-1.831-10.42-4.45a3.332,3.332,0,0,0,.18-3.609C41.638,246.375,45.414,244.791,48.682,245.266Zm4.938-39.442a5.713,5.713,0,1,1-2.822,11.07c-3.253-.5-6.4-3.147-9.346-6.405a3.333,3.333,0,0,0,.884-3.5C46.5,205.532,50.508,204.718,53.62,205.824ZM73.7,355.54c1.023,3.136.092,7.124-1.481,11.24a3.329,3.329,0,0,0-3.507.789c-3.188-3.042-5.741-6.245-6.16-9.517A5.715,5.715,0,1,1,73.7,355.54ZM62.041,322.892a5.713,5.713,0,1,1,3.814,10.768c-2.982,1.394-7.07.946-11.33-.124a3.332,3.332,0,0,0-1.215-3.4C55.958,326.612,58.84,323.7,62.041,322.892Zm4.006-154.455a5.713,5.713,0,1,1-4.918,10.311c-3.094-1.123-5.668-4.33-7.923-8.1a3.332,3.332,0,0,0,1.547-3.265C59.116,166.766,63.21,166.747,66.047,168.437Zm35.207,234.1c4.382-.273,8.473.028,11.175,1.944a5.715,5.715,0,1,1-5.722,9.893c-2.99-1.365-5.312-4.786-7.258-8.7A3.332,3.332,0,0,0,101.254,402.536Zm14.666,25.421c3.051-1.264,7.1-.657,11.328.582a3.326,3.326,0,0,0,1.065,3.46c-2.78,3.407-5.789,6.2-9.011,6.869A5.712,5.712,0,1,1,115.92,427.957Zm16.264,4.3c2.375,3.674,4.129,7.418,3.767,10.685a5.715,5.715,0,1,1-11.428-.151c-0.264-3.3,1.576-6.97,4.056-10.591A3.344,3.344,0,0,0,132.184,432.254Zm-12.845-18.507a5.914,5.914,0,0,1,8.022,1.45c2.145,2.506,2.812,6.546,2.933,10.951a3.328,3.328,0,0,0-2.938,2.071c-4.11-1.59-7.694-3.572-9.333-6.435A5.918,5.918,0,0,1,119.339,413.747Zm-1.37-336.354c1.925-2.664,5.735-4.271,9.955-5.411a3.333,3.333,0,0,0,2.721,2.384c-0.59,4.35-1.687,8.3-4.1,10.577A5.716,5.716,0,1,1,117.969,77.393ZM140.927,87.62a5.913,5.913,0,0,1-7.873-2.085c-1.947-2.654-2.3-6.751-2.079-11.137a3.331,3.331,0,0,0,3.1-1.853c3.969,1.913,7.382,4.175,8.8,7.157A5.9,5.9,0,0,1,140.927,87.62Zm2.1,334.508c-1.707,2.814-5.357,4.71-9.494,6.183a3.332,3.332,0,0,0-2.9-2.157c0.249-4.4,1.033-8.418,3.246-10.869A5.713,5.713,0,1,1,143.027,422.128Zm-10.559,9.926a3.331,3.331,0,0,0,1.161-3.426c4.245-1.119,8.317-1.619,11.34-.264a5.715,5.715,0,1,1-3.692,10.816C138.079,438.422,135.137,435.516,132.468,432.054Zm37.626,19.859c3.049,3.137,5.5,6.464,5.787,9.739a5.715,5.715,0,1,1-11.236,2.092c-0.906-3.186.18-7.144,1.9-11.181A3.343,3.343,0,0,0,170.094,451.913Zm8.649-12.054c-1.123,3.094-4.33,5.668-8.1,7.923a3.333,3.333,0,0,0-3.266-1.548c-0.617-4.362-.636-8.456,1.053-11.293A5.713,5.713,0,1,1,178.743,439.859ZM170.862,53.323c3.521,2.648,6.43,5.529,7.241,8.73a5.713,5.713,0,1,1-10.769,3.813c-1.393-2.982-.946-7.07.125-11.329A3.332,3.332,0,0,0,170.862,53.323Zm-8.84,382.808c2.594,2.037,4.04,5.869,5.022,10.165a3.327,3.327,0,0,0-2.475,2.606c-4.342-.754-8.245-2-10.413-4.482A5.714,5.714,0,1,1,162.022,436.131Zm-7.9-381.182c2.406-2.24,6.456-3.075,10.817-3.375a3.333,3.333,0,0,0,2.207,2.867c-1.425,4.153-3.269,7.817-6.073,9.58A5.715,5.715,0,1,1,154.118,54.949ZM170.8,448.074c3.944-1.93,7.839-3.217,11.069-2.481a5.715,5.715,0,1,1-1.5,11.33c-3.285-.117-6.739-2.39-10.035-5.262A3.332,3.332,0,0,0,170.8,448.074Zm33.967,14.076a3.324,3.324,0,0,0,2.308,2.789c-1.264,4.212-2.976,7.94-5.7,9.795a5.713,5.713,0,1,1-7.3-8.787C196.414,463.612,200.387,462.623,204.767,462.15Zm5.982,1.543c3.6,2.486,6.654,5.273,7.569,8.43a5.715,5.715,0,1,1-10.616,4.234c-1.507-2.949-1.211-7.042-.306-11.337A3.34,3.34,0,0,0,210.749,463.693Zm0.854-405.6a5.913,5.913,0,0,1-6.476-4.939c-0.782-3.2.458-7.118,2.342-11.085a3.332,3.332,0,0,0,3.575-.525c2.935,3.287,5.222,6.682,5.391,9.98A5.9,5.9,0,0,1,211.6,58.089Zm5.289,392.1c-0.5,3.254-3.147,6.4-6.406,9.345a3.333,3.333,0,0,0-3.5-.883c-1.453-4.16-2.267-8.172-1.16-11.283A5.713,5.713,0,1,1,216.892,450.189Zm-6.2,9.6c3.494-2.658,7.065-4.678,10.376-4.583a5.715,5.715,0,1,1,.729,11.406c-3.245.523-7.076-1.035-10.866-3.213A3.332,3.332,0,0,0,210.7,459.79Zm29.1-3.932c3.176,0.889,5.978,3.876,8.529,7.469a3.328,3.328,0,0,0-1.289,3.355c-4.3.964-8.381,1.311-11.336-.156A5.714,5.714,0,1,1,239.8,455.858Zm7.328,11.15a3.327,3.327,0,0,0,2.81,2.283c-0.415,4.377-1.363,8.369-3.666,10.72a5.713,5.713,0,1,1-8.881-7.185C239.223,470.078,242.926,468.33,247.128,467.008ZM238.173,52.146a5.894,5.894,0,0,1-.782-8.111c1.832-2.748,5.535-4.5,9.737-5.818a3.325,3.325,0,0,0,2.81,2.283c-0.415,4.378-1.363,8.369-3.666,10.721A5.907,5.907,0,0,1,238.173,52.146Zm14.618-.572c-2.057-2.6-2.568-6.669-2.522-11.058a3.342,3.342,0,0,0,3.028-1.958c4.017,1.732,7.558,3.867,9.074,6.784A5.715,5.715,0,1,1,252.791,51.574Zm-4.176,411.568c-2.24-3.794-3.825-7.569-3.349-10.837a5.713,5.713,0,1,1,11.408.6c0.147,3.288-1.831,6.894-4.45,10.419A3.334,3.334,0,0,0,248.615,463.142Zm4.682,4.207c4.017,1.732,7.558,3.867,9.074,6.784a5.715,5.715,0,1,1-9.58,6.232c-2.057-2.6-2.568-6.669-2.522-11.058A3.342,3.342,0,0,0,253.3,467.349Zm41.038-5.183c2.935,3.287,5.223,6.682,5.391,9.98a5.713,5.713,0,1,1-11.308,1.629c-0.782-3.2.458-7.118,2.342-11.084A3.334,3.334,0,0,0,294.335,462.166Zm9.13-11.679c-1.264,3.051-4.557,5.485-8.422,7.6a3.324,3.324,0,0,0-3.2-1.694c-0.444-4.375-.289-8.475,1.514-11.229A5.713,5.713,0,1,1,303.465,450.487Zm-8.69-407.272c3.6,2.486,6.653,5.273,7.568,8.43a5.715,5.715,0,1,1-10.615,4.234c-1.508-2.949-1.212-7.042-.306-11.337A3.342,3.342,0,0,0,294.775,43.215Zm-7.881,402.868c2.521,2.148,3.814,6.042,4.621,10.357a3.343,3.343,0,0,0-2.59,2.509c-4.277-.919-8.165-2.326-10.218-4.892A5.715,5.715,0,1,1,286.894,446.083ZM278.1,45.469c2.335-2.336,6.308-3.324,10.689-3.8a3.322,3.322,0,0,0,2.308,2.789c-1.265,4.212-2.977,7.94-5.7,9.794A5.713,5.713,0,1,1,278.1,45.469Zm17.089,412.919c4.031-1.781,7.966-2.914,11.15-2.049A5.715,5.715,0,1,1,304.4,467.6c-3.289-.256-6.618-2.641-9.818-5.67A3.33,3.33,0,0,0,295.193,458.388Zm29.321-23.228c2.894,1.613,4.925,5.179,6.562,9.251a3.343,3.343,0,0,0-2.048,2.968c-4.374-.063-8.463-0.681-10.979-2.8A5.715,5.715,0,1,1,324.514,435.16Zm4.523,12.566a3.333,3.333,0,0,0,2.206,2.867c-1.424,4.153-3.268,7.817-6.072,9.58a5.715,5.715,0,1,1-6.951-9.072C320.626,448.861,324.675,448.025,329.037,447.726Zm5.926,1.748c3.522,2.648,6.431,5.53,7.242,8.73a5.713,5.713,0,1,1-10.769,3.814c-1.394-2.982-.946-7.07.124-11.329A3.332,3.332,0,0,0,334.963,449.474Zm0.456-377.212a5.923,5.923,0,0,1-6.672-4.669c-0.906-3.186.18-7.144,1.9-11.181a3.342,3.342,0,0,0,3.547-.65c3.048,3.138,5.5,6.465,5.787,9.74A5.934,5.934,0,0,1,335.419,72.262Zm6.208,363.971c-0.641,3.239-3.393,6.271-6.77,9.1a3.324,3.324,0,0,0-3.469-1.034c-1.292-4.2-1.944-8.254-.716-11.307A5.713,5.713,0,1,1,341.627,436.233Zm-6.563,9.368c3.6-2.536,7.241-4.418,10.532-4.193a5.714,5.714,0,1,1,.3,11.423c-3.274.394-7.006-1.294-10.738-3.637A3.329,3.329,0,0,0,335.064,445.6Zm16.319-25.386a5.924,5.924,0,0,1,7.592-2.947c3.151,1.02,5.836,4.124,8.233,7.8a3.343,3.343,0,0,0-1.433,3.309c-4.3.787-8.433,0.976-11.313-.61A5.934,5.934,0,0,1,351.383,420.215Zm14.469,8.5a3.331,3.331,0,0,0,2.721,2.384c-0.591,4.35-1.688,8.3-4.1,10.577a5.716,5.716,0,1,1-8.581-7.55C357.821,431.463,361.631,429.857,365.852,428.716Zm6.153,0.564c3.969,1.913,7.382,4.175,8.8,7.157a5.713,5.713,0,1,1-9.824,5.833c-1.946-2.655-2.3-6.752-2.078-11.138A3.33,3.33,0,0,0,372.005,429.28Zm-4.513-4.381c-2.084-3.872-3.51-7.719-2.9-10.953A5.713,5.713,0,1,1,375.97,415c0,3.3-2.111,6.812-4.873,10.243A3.325,3.325,0,0,0,367.492,424.9Zm4.648,4.069a3.329,3.329,0,0,0-.789-3.507c3.042-3.188,6.245-5.74,9.518-6.159a5.714,5.714,0,1,1,2.512,11.147C380.245,431.472,376.256,430.542,372.14,428.968Zm26.4-26.308a3.333,3.333,0,0,0,3.135,1.8c0.274,4.381-.028,8.472-1.943,11.174a5.716,5.716,0,1,1-9.895-5.722C391.2,406.927,394.624,404.605,398.539,402.66Zm6.144-.653c4.267,1.1,8.057,2.648,10.032,5.3a5.713,5.713,0,1,1-8.49,7.644c-2.429-2.222-3.58-6.17-4.221-10.514A3.331,3.331,0,0,0,404.683,402.007ZM403,398.223a3.327,3.327,0,0,0-3.6.373c-2.8-3.389-4.954-6.882-4.988-10.173a5.713,5.713,0,1,1,11.361-1.2C406.419,390.463,405.037,394.316,403,398.223Zm-4.174-296.367a3.342,3.342,0,0,0,3.526.756c1.616,4.065,2.609,8.078,1.619,11.213a5.715,5.715,0,1,1-11.181-2.368C393.173,108.167,395.691,104.927,398.827,101.856ZM387.184,403.962a5.715,5.715,0,1,1,2.367-11.18c3.291,0.382,6.532,2.9,9.6,6.036a3.34,3.34,0,0,0-.756,3.525C394.332,403.959,390.319,404.953,387.184,403.962Zm17.57-2.287a3.327,3.327,0,0,0-1.461-3.284c2.359-3.722,5-6.853,8.127-7.905a5.714,5.714,0,1,1,4.647,10.439C413.193,402.542,409.1,402.412,404.754,401.675Zm13.395-21.856c0.759-3.2,3.664-6.14,7.127-8.809a3.331,3.331,0,0,0,3.426,1.161c1.12,4.245,1.619,8.317.264,11.339A5.716,5.716,0,1,1,418.149,379.819Zm13.027-10.643c4.4,0.249,8.418,1.033,10.869,3.246a5.713,5.713,0,1,1-6.843,9.147c-2.814-1.708-4.71-5.357-6.183-9.494A3.33,3.33,0,0,0,431.176,369.176Zm10.958-3.272c-2.506,2.144-6.547,2.811-10.952,2.932a3.33,3.33,0,0,0-2.071-2.938c1.591-4.109,3.573-7.693,6.436-9.332A5.715,5.715,0,1,1,442.134,365.9Zm-1.894-21.44c0.118-3.285,2.39-6.739,5.263-10.035a3.332,3.332,0,0,0,3.587.468c1.93,3.943,3.217,7.838,2.481,11.067A5.716,5.716,0,1,1,440.24,344.464Zm10.69-12.989c4.362-.618,8.457-0.637,11.294,1.053a5.713,5.713,0,1,1-4.918,10.311c-3.095-1.123-5.669-4.33-7.924-8.1A3.332,3.332,0,0,0,450.93,331.475Zm10.036-20.217a5.932,5.932,0,0,1-6.087-5.435c-0.523-3.245,1.035-7.075,3.213-10.866a3.334,3.334,0,0,0,3.61-.238c2.659,3.493,4.678,7.064,4.583,10.375A5.917,5.917,0,0,1,460.966,311.258Zm9.016-35.436a5.913,5.913,0,0,1,1.73,7.967c-1.494,2.94-4.972,5.1-9,6.9a3.33,3.33,0,0,0-3.038-1.922c-0.1-4.4.356-8.475,2.374-11.084A5.919,5.919,0,0,1,469.982,275.822Zm2.818-14.066a5.715,5.715,0,1,1-11.042,2.949c-1.149-3.079-.371-7.14,1.021-11.284a3.333,3.333,0,0,0,3.494-.941C469.564,255.385,472.244,258.491,472.8,261.756Zm1.147-21.956c-0.889,3.176-3.876,5.978-7.469,8.529a3.332,3.332,0,0,0-3.356-1.289c-0.964-4.3-1.311-8.38.157-11.335A5.714,5.714,0,1,1,473.947,239.8Zm-11.4-29.266c3.793,2.211,7.026,4.737,8.2,7.832a5.715,5.715,0,1,1-10.259,5.038c-1.725-2.8-1.751-6.933-1.19-11.268A3.332,3.332,0,0,0,462.548,210.534Zm-2.034,39.4c-4.378-.415-8.37-1.363-10.721-3.666a5.712,5.712,0,1,1,7.185-8.88c2.748,1.832,4.5,5.534,5.819,9.737A3.323,3.323,0,0,0,460.514,249.938ZM454.07,222.3a5.715,5.715,0,1,1-7.975-8.186c2.148-2.522,6.043-3.814,10.358-4.622a3.343,3.343,0,0,0,2.509,2.59C458.043,216.354,456.636,220.242,454.07,222.3ZM444.6,182.956a5.715,5.715,0,1,1-9.424-6.466c1.613-2.893,5.179-4.924,9.252-6.561a3.341,3.341,0,0,0,2.968,2.048C447.329,176.351,446.711,180.439,444.6,182.956Zm0.75-16.808a3.323,3.323,0,0,0-1.033,3.469c-4.2,1.292-8.255,1.944-11.309.716a5.713,5.713,0,1,1,3.241-10.954C439.485,160.02,442.516,162.772,445.346,166.148Zm-14.234-33.713c4.35,0.59,8.3,1.687,10.577,4.095a5.716,5.716,0,1,1-7.55,8.581c-2.664-1.925-4.271-5.735-5.412-9.955A3.335,3.335,0,0,0,431.112,132.435Zm-2.723,2.8c0.788,4.3.976,8.433-.609,11.312a5.715,5.715,0,1,1-10.5-4.512c1.02-3.151,4.124-5.836,7.8-8.233A3.342,3.342,0,0,0,428.389,135.232Zm-13.382-10.194c3.3,0,6.812,2.111,10.244,4.873a3.323,3.323,0,0,0-.341,3.6c-3.872,2.084-7.719,3.51-10.954,2.9A5.713,5.713,0,1,1,415.007,125.038Zm10.324,241.818c-3.408-2.781-6.2-5.789-6.87-9.011a5.713,5.713,0,1,1,10.912-3.382c1.264,3.051.657,7.1-.582,11.328A3.324,3.324,0,0,0,425.331,366.856Zm3.419-31.442a5.922,5.922,0,0,1,4.669-6.672c3.186-.906,7.144.18,11.182,1.9a3.34,3.34,0,0,0,.65,3.546c-3.138,3.049-6.465,5.5-9.74,5.787A5.934,5.934,0,0,1,428.75,335.414Zm15.992-5.069c-3.886-2.059-7.211-4.462-8.5-7.49a5.713,5.713,0,1,1,10.038-5.455c1.837,2.745,2.035,6.834,1.649,11.223A3.325,3.325,0,0,0,444.742,330.345Zm2.936-69.6a5.924,5.924,0,0,1,1.761-7.951c2.6-2.056,6.669-2.567,11.058-2.521a3.343,3.343,0,0,0,1.959,3.028c-1.733,4.017-3.868,7.557-6.785,9.073A5.936,5.936,0,0,1,447.678,260.741Zm8.875,30.357c-4.212-1.265-7.941-2.976-9.8-5.7a5.712,5.712,0,1,1,8.786-7.3c2.336,2.335,3.325,6.308,3.8,10.688A3.324,3.324,0,0,0,456.553,291.1Zm4.33,26.87a5.914,5.914,0,0,1,.15,8.151c-2.037,2.594-5.869,4.039-10.165,5.022a3.33,3.33,0,0,0-2.606-2.476c0.754-4.341,2-8.244,4.482-10.412A5.918,5.918,0,0,1,460.883,317.968Zm-19.034-18.792a5.922,5.922,0,0,1,3.285-7.451c2.949-1.507,7.042-1.211,11.338-.306a3.341,3.341,0,0,0,1.327,3.353c-2.486,3.6-5.274,6.653-8.431,7.568A5.936,5.936,0,0,1,441.849,299.176Zm-27.458,75.316a5.715,5.715,0,1,1,.15-11.427c3.3-.264,6.97,1.576,10.592,4.056a3.34,3.34,0,0,0-.057,3.605C421.4,373.1,417.658,374.855,414.391,374.492Zm36.215-204.73c4.153,1.424,7.817,3.268,9.58,6.072a5.715,5.715,0,1,1-9.073,6.95c-2.239-2.405-3.075-6.455-3.375-10.816A3.333,3.333,0,0,0,450.606,169.762Zm5.8,39.4c-4.375.443-8.475,0.288-11.229-1.514a5.713,5.713,0,1,1,5.324-10.107c3.051,1.263,5.485,4.556,7.6,8.421A3.325,3.325,0,0,0,456.405,209.16Zm5.553,85.348a3.331,3.331,0,0,0,.884-3.5c4.159-1.453,8.172-2.267,11.283-1.161a5.713,5.713,0,1,1-2.821,11.07C468.05,300.413,464.9,297.767,461.958,294.508Z"/>
</svg>
