<svg xmlns="http://www.w3.org/2000/svg" width="100" height="100" viewBox="0 0 500 500">
  <defs>
    <style>
      .cls-1 {
        fill-rule: evenodd;
      }
    </style>
  </defs>
  <path id="Helix_1" data-name="Helix 1" class="cls-1" d="M250.989,2c6.845,0,11.284,2.743,15.275,5.618,5.845,4.212,10.464,10.024,14.721,15.826,2.608,3.555,5.371,7.029,7.994,10.6,0.619,0.845,1.435,1.614,2.058,2.453,0.772,1.042,1.6,1.975,2.374,3.007,0.347,0.46.92,0.809,1.266,1.266a17.25,17.25,0,0,0,3.245,3.244c0.34,0.256.607,0.693,0.95,0.95a16.405,16.405,0,0,0,5.7,3.086,13.187,13.187,0,0,0,5.3-.079c1.755-.429,3.305-0.5,4.907-1.029l4.669-1.583A17.437,17.437,0,0,0,320.8,48.53c1.084,2.5,1.922,4.95,3.007,7.438a14.587,14.587,0,0,1,1.346,3.086,16.134,16.134,0,0,0-2.374.87c-1.654.619-3.4,1.038-5.066,1.583-2.105.688-4.392,0.814-6.648,1.345-0.885.209-1.851,0.046-2.691,0.237h-1.345a19.144,19.144,0,0,1-4.511-.4c-0.594-.15-1.016-0.076-1.583-0.237a32.962,32.962,0,0,1-4.195-1.424A35.277,35.277,0,0,1,290.166,57c-0.588-.432-1.085-1.068-1.662-1.5a17.887,17.887,0,0,1-3.482-3.323c-0.57-.753-1.485-1.3-2.058-2.058-1.317-1.74-2.806-3.3-4.116-5.064-1.034-1.4-2.29-2.71-3.324-4.115-2.479-3.371-4.968-6.682-7.439-10.05-0.642-.874-1.49-1.667-2.137-2.532-0.97-1.3-2.039-2.437-3.008-3.719l-0.87-.791c-2.05-2.709-5.942-5.946-9.735-6.884a12.2,12.2,0,0,0-5.065.4,23.18,23.18,0,0,0-6.015,3.482c-0.568.424-1.022,1.079-1.583,1.5a21.884,21.884,0,0,0-2.216,2.137l-1.029.95c-0.793,1.047-1.832,1.894-2.612,2.928a1.788,1.788,0,0,1-.95.95,4.732,4.732,0,0,0-1.108-.791c-0.741-.522-1.458-1.117-2.216-1.662-2-1.437-3.86-3.151-5.857-4.59a11.911,11.911,0,0,1-2.532-1.9,8.819,8.819,0,0,0,1.741-2.057c0.8-1.065,1.877-1.93,2.691-3.007l2.532-2.453a47.209,47.209,0,0,1,8.627-6.964A31.865,31.865,0,0,1,245.766,2.4a13.85,13.85,0,0,1,3.324-.317A5.208,5.208,0,0,0,250.989,2ZM369.944,69.737l0.633,4.273c0.241,1.028.178,2.075,0.4,3.007q0.2,1.741.395,3.482c0.2,0.85.269,1.922,0.475,2.77a3.4,3.4,0,0,1,.079,1.108c-0.732.465-2.124,0.036-3.086,0.237a26.008,26.008,0,0,1-4.907.158,15.187,15.187,0,0,1-2.77-.079l-2.375-.079c-1.713-.382-3.506-0.332-5.144-0.791-7.695-2.158-12.335-5.305-16.462-11-0.77-1.062-1.665-2.122-2.374-3.244-3.4-5.377-6.064-11.547-8.706-17.646-2.763-6.377-5.043-13.1-8.548-18.754-1.952-3.15-3.572-5.968-6.727-7.913a6.29,6.29,0,0,0-4.512-.95,30.8,30.8,0,0,0-10.13,4.431c-1.088.686-2.176,1.465-3.245,2.216a4.448,4.448,0,0,1-1.108.791c-0.318-.948-1.625-2.108-2.216-2.928-1.458-2.024-2.9-3.993-4.353-6.014-0.487-.678-2.053-2.24-2.216-3.007,1.739-.983,3.294-2.409,4.986-3.482a58.315,58.315,0,0,1,10.685-5.381,44.328,44.328,0,0,1,5.065-1.266,20.544,20.544,0,0,1,10.051.791,23.981,23.981,0,0,1,4.274,1.741c4.532,2.765,7.689,6.456,10.605,10.841,3.915,5.886,6.59,12.748,9.577,19.625,1.647,3.791,3.425,7.678,5.065,11.395,2.324,5.264,5.435,11.22,10.131,14.085,1.7,1.036,3.923,1.148,6.173,1.662l2.216,0.079a18.3,18.3,0,0,0,4.116.079A21.216,21.216,0,0,1,369.944,69.737Zm-181-59.666c9.4-.235,15.777,3.769,21.448,7.359,6.87,4.35,12.9,9.458,19.47,14.086,4.195,2.955,8.293,6.054,13.375,8.151,6.159,2.541,12.15.273,16.541-2.453,1.413-.877,2.815-1.825,4.195-2.77,0.361-.247,1.056-1.024,1.425-0.95a17.347,17.347,0,0,1,1.82,2.453c1.334,1.855,2.766,3.662,4.116,5.539,0.606,0.844,1.269,1.674,1.9,2.532a5.637,5.637,0,0,1,1.029,1.345h-0.079a19.318,19.318,0,0,1-2.533,1.741,73.016,73.016,0,0,1-8.152,4.985,45.3,45.3,0,0,1-6.885,2.691c-0.851.278-1.617,0.25-2.533,0.475a8.924,8.924,0,0,1-4.116.237c-0.159-.054-1.517.079-1.9,0.079a16.068,16.068,0,0,1-3.878-.317,46.627,46.627,0,0,1-10.764-3.877c-8.782-4.592-15.893-10.721-23.664-16.3-5.571-4-10.566-8.314-18.362-10.129a6.924,6.924,0,0,0-4.986,1.187c-3.586,2.366-5.639,6.46-7.677,10.366-0.606,1.163-1.088,2.4-1.662,3.561-0.213.43-.194,1.061-0.712,1.187a17.6,17.6,0,0,0-3.087-1.187c-2.214-.942-4.521-1.91-6.727-2.849-0.919-.391-1.833-0.735-2.691-1.108a1.866,1.866,0,0,1-1.029-.475A10.654,10.654,0,0,0,163.93,33.1c0.623-1.411,1.333-2.884,2.058-4.273a65.8,65.8,0,0,1,5.223-8.467c0.6-.816,1.455-1.5,2.058-2.295a13.557,13.557,0,0,1,2.454-2.532,28.072,28.072,0,0,1,8.31-4.59c1.057-.351,2.209-0.449,3.324-0.712A6.359,6.359,0,0,0,188.94,10.072ZM411.97,122.439a13.471,13.471,0,0,1-2.612-.475c-2.138-.537-4.246-0.718-6.173-1.345l-2.3-.554c-2-.665-3.973-1.5-5.777-2.3a9.293,9.293,0,0,1-1.187-.475c-1.359-.825-2.771-1.6-4.037-2.532-0.745-.546-1.342-1.335-2.057-1.9a1.012,1.012,0,0,1-.317-0.158,1.721,1.721,0,0,0-.079-0.4,30.846,30.846,0,0,1-7.6-11.237c-1.6-3.775-2.308-8.055-3.4-12.344-0.514-2.01-.555-4.122-1.029-6.093-0.487-2.025-.4-4.2-0.871-6.172q-0.039-.593-0.079-1.187c-0.5-2.13-.422-4.558-0.95-6.726-0.337-1.386-.341-2.91-0.712-4.352-0.73-2.838-1.2-5.809-2.058-8.388-1.079-3.252-2.323-6.578-4.986-8.23a11.741,11.741,0,0,0-7.756-.87,52.987,52.987,0,0,0-7.519,1.978,36.222,36.222,0,0,1-4.828,1.82,22.926,22.926,0,0,0-1.582-3.561c-1-2.305-1.785-4.575-2.771-6.885a14.491,14.491,0,0,1-1.345-3.244h0.158c0.847-.632,2.141-0.764,3.166-1.187,2.214-.913,4.671-1.6,7.044-2.374,0.892-.292,1.69-0.3,2.612-0.554,1.42-.4,3.126-0.51,4.669-0.87,0.661-.154,1.393-0.023,1.979-0.158h1.266a18.551,18.551,0,0,1,4.195.317,33.513,33.513,0,0,1,4.907,1.187,25.876,25.876,0,0,1,5.382,3.007c0.483,0.355.874,0.91,1.345,1.266,4.39,3.319,6.856,9.742,8.785,15.589q0.673,2.769,1.346,5.539c0.793,2.8.8,5.858,1.5,8.7q0.159,1.385.317,2.77c0.747,3.09.669,6.593,1.425,9.654,0.452,1.833.327,3.6,0.791,5.381,1.32,5.074,1.981,9.962,4.432,13.848a12.143,12.143,0,0,0,2.691,2.849c0.211,0.174-.029.247,0.079,0.395a13.226,13.226,0,0,0,1.741,1.345c3.834,2.423,9.027,3.134,14.246,4.194V108.2a4.693,4.693,0,0,0-.158,1.187c-0.248,1.059-.209,2.2-0.475,3.324-0.4,1.708-.364,3.573-0.791,5.381A25.6,25.6,0,0,0,411.97,122.439ZM135.517,32.862c8.006-.172,15.228,2.1,20.894,4.431,1.164,0.479,2.251.708,3.4,1.187,4.819,2,9.667,3.827,14.562,5.856,2.876,1.192,5.993,2.154,9.1,3.165,1.182,0.385,2.294.394,3.561,0.712a15.822,15.822,0,0,0,6.253.317,17.647,17.647,0,0,0,6.648-3.324c0.539-.4.973-1.023,1.5-1.424,0.577-.437.981-0.95,1.5-1.424l0.317-.158c0.96-1.128,2.027-2.141,3.008-3.244a3.359,3.359,0,0,1,1.108-1.187,5.293,5.293,0,0,0,1.108.791c0.9,0.659,1.771,1.383,2.691,2.058,1.885,1.383,3.693,2.889,5.619,4.273a19.987,19.987,0,0,0,2.295,1.741v0.158A9.926,9.926,0,0,0,217.2,49a33.79,33.79,0,0,1-3.166,3.244l-1.9,1.978c-1.03.78-1.9,1.769-2.928,2.532a39.318,39.318,0,0,1-7.756,4.748,35.7,35.7,0,0,1-5.3,1.583c-0.778.2-1.624,0.147-2.374,0.316a16.791,16.791,0,0,1-5.3-.079c-0.979-.218-1.838-0.009-2.77-0.237-2.308-.565-4.7-0.892-6.807-1.583-2.37-.778-4.652-1.217-6.885-2.136-7.313-3.011-14.462-5.8-21.923-8.625-2.366-.9-4.939-1.65-7.519-2.374-1.019-.286-2.089-0.324-3.087-0.554a11.189,11.189,0,0,0-7.756,1.266c-3.432,2.459-4.4,7.853-5.7,12.5l-0.792,4.51c-0.908-.285-1.938-0.16-2.928-0.4-2.406-.572-5.114-0.622-7.519-1.187-0.942-.221-3.722-0.207-4.274-0.633,0.432-.717.315-2.327,0.554-3.244q0.673-3.007,1.346-6.014c0.7-2.138,1.269-4.329,2.137-6.331,1.872-4.319,4.546-8.4,8.152-11a26.152,26.152,0,0,1,7.835-3.719l3.087-.554C134.177,32.89,135.073,33.139,135.517,32.862Zm32.529,28.883a8.934,8.934,0,0,1-1.267,2.69c-1.078,2.061-2.056,4.056-3.245,5.935-3.249,5.137-7.012,9.874-12.821,12.424A46.76,46.76,0,0,1,142.8,85.01c-0.974.233-2,.107-2.928,0.316H138.6a22.99,22.99,0,0,1-5.619,0h-1.5c-1.238-.277-2.752-0.123-3.957-0.4l-1.5-.079c-1.617-.37-3.487-0.341-5.065-0.712l-1.188-.079c-1.584-.378-3.318-0.315-4.986-0.712-1.773-.422-3.751-0.357-5.619-0.791-1.413-.328-2.98-0.212-4.511-0.554-1.093-.244-2.376-0.059-3.562-0.317-0.912-.2-2.046.066-3.086-0.158a12.832,12.832,0,0,0-4.116.079l-2.058.158a14.9,14.9,0,0,0-5.065,1.82,11.9,11.9,0,0,0-1.5,1.662c-1.729,1.755-2.325,3.3-3.087,6.014-0.3,1.075-.138,2.076-0.4,3.244-0.2.894,0.067,2.052-.158,3.086a5.85,5.85,0,0,0-.079,1.978c0.142,0.643-.085,1.633.079,2.374q0.158,2.017.317,4.036H81.778c-0.756.469-3.121,0.379-4.195,0.633-1.5.353-3.163,0.259-4.749,0.633a34.961,34.961,0,0,1-5.619.791c-0.288-6.089-1.075-13.766.4-19.308,0.338-1.273.4-2.38,0.791-3.561A25.953,25.953,0,0,1,85.735,67.917a33.955,33.955,0,0,1,9.893-1.266,23.03,23.03,0,0,1,4.274.079h1.5c0.915,0.2,2.111.12,3.007,0.317h0.871c1.321,0.293,2.9.26,4.195,0.554l1.266,0.079c1.786,0.413,3.843.455,5.619,0.871,2.542,0.595,5.332.535,7.835,1.108l1.9,0.158c1.414,0.319,3.13.238,4.59,0.554l2.216,0.079a13.948,13.948,0,0,0,4.274.079H138.6l2.295-.237a21.327,21.327,0,0,0,3.324-.87c3.058-1.291,5.121-4.129,6.807-6.805,0.705-1.121,1.175-2.291,1.82-3.482,0.147-.272.425-0.576,0.554-0.87,0.255-.581.5-1.864,1.187-1.978,0.771,0.656,2.979,1.2,4.036,1.662,1.825,0.8,3.728,1.476,5.62,2.295A16.025,16.025,0,0,0,168.046,61.745Zm223.979,5.539c6.09-.288,13.767-1.075,19.312.4,1.355,0.36,2.542.456,3.8,0.871a25.244,25.244,0,0,1,9.973,5.856,25.733,25.733,0,0,1,7.123,11.712c0.591,1.847.59,3.917,1.029,5.935q0.039,1.147.079,2.295a18.833,18.833,0,0,1,0,5.3v1.583c-0.214.978-.108,2.211-0.317,3.165v0.87c-0.339,1.527-.292,3.327-0.633,4.827q-0.079.91-.158,1.82c-0.364,1.576-.423,3.411-0.792,4.986-0.6,2.567-.534,5.38-1.108,7.913q-0.078.949-.158,1.9c-0.267,1.191-.211,2.662-0.475,3.878v1.028c-0.191.891,0.059,1.992-.158,3.007a8.935,8.935,0,0,0,0,2.928v1.425c0.173,0.8.109,1.7,0.316,2.532,1.327,5.293,3.953,7.3,7.994,9.812,1.36,0.845,2.852,1.564,4.274,2.295,0.506,0.26,1.494.371,1.662,0.95a22.358,22.358,0,0,0-1.5,3.719c-0.836,1.927-1.71,3.99-2.533,5.935-0.552,1.307-.911,2.621-1.5,3.877a13.567,13.567,0,0,1-2.295-1.108,44.574,44.574,0,0,1-5.62-3.007c-5.715-3.562-10.577-7.453-13.375-13.927-1.107-2.56-1.358-5.341-2.058-8.388-0.218-.951.057-1.846-0.158-2.849a15.352,15.352,0,0,1-.079-2.769,23.653,23.653,0,0,1,.158-4.669v-1.187c0.183-.82.136-1.892,0.316-2.69,0.362-1.605.106-3.252,0.475-4.828l2.058-14.085c0.368-1.571.212-3.236,0.554-4.748q0.119-2.017.238-4.036a12.885,12.885,0,0,0,.079-3.877q-0.04-1.385-.079-2.77c-0.633-2.8-.854-4.789-2.3-6.726a11.7,11.7,0,0,0-1.345-1.108c-1.778-1.764-3.6-2.416-6.411-3.165-0.713-.19-1.472-0.164-2.137-0.316-1.213-.278-2.493.124-3.8-0.158a12.676,12.676,0,0,0-2.532,0h-1.821L394.083,82V81.923H394Q393.014,74.6,392.025,67.284ZM122.379,88.1A41.01,41.01,0,0,1,120.8,95.93c-0.286.938-.33,1.781-0.633,2.691a41.383,41.383,0,0,1-3.4,8.388c-4.7,7.7-10.857,11.639-20.182,14.719-3.346,1.1-7.029,1.464-10.605,2.374-1.165.3-2.39,0.291-3.482,0.554-1.834.441-3.773,0.38-5.54,0.791l-2.374.237c-1.939.456-4.178,0.489-6.094,0.95-0.893.215-1.662,0.1-2.533,0.317-2.243.562-4.689,0.826-6.806,1.424-4.982,1.407-10.312,2.577-12.188,7.043a12.552,12.552,0,0,0-.237,6.647l0.158,1.345c0.492,1.754.857,3.517,1.425,5.223l2.137,5.776a24.648,24.648,0,0,0-3.957,1.741c-2.124.921-4.207,1.612-6.332,2.533a15.818,15.818,0,0,1-3.4,1.424,26.3,26.3,0,0,0-1.662-4.352c-0.8-1.929-1.246-4.032-1.9-6.014-0.693-2.1-.8-4.394-1.345-6.647-0.212-.884-0.042-1.852-0.237-2.691v-1.266a17.856,17.856,0,0,1,.317-4.115l0.237-1.741a31.377,31.377,0,0,1,1.266-3.956,24.461,24.461,0,0,1,2.691-4.59c0.331-.452.853-0.824,1.187-1.266,2.424-3.211,6.27-5.18,10.21-6.885a86.557,86.557,0,0,1,10.21-3.165l8.389-1.5,2.137-.237c2.362-.566,5.076-0.528,7.44-1.108l1.187-.079c1.7-.408,3.551-0.351,5.3-0.791l6.015-1.108a68.322,68.322,0,0,0,8.785-2.77,12.782,12.782,0,0,0,4.748-3.719,7.454,7.454,0,0,0,.871-0.633c0.413-.548.833-1.164,1.187-1.741,2.256-3.677,2.894-8.771,3.878-13.69h0.633a4.2,4.2,0,0,0,1.108.158c1.063,0.249,2.195.2,3.324,0.475,1.525,0.367,3.2.328,4.828,0.712A33.739,33.739,0,0,0,122.379,88.1Zm313.73,22.473c2.277,0.7,4.845.694,7.123,1.345,5.49,1.572,10.459,3.131,14.562,6.015a23.341,23.341,0,0,1,8.073,10.6,26.287,26.287,0,0,1,.871,3.64,15.8,15.8,0,0,1,.4,5.777q-0.04,1.147-.08,2.295c-0.379,1.655-.338,3.388-0.791,4.985-0.713,2.513-1.247,5.021-2.058,7.439-1.925,5.742-4.266,11.284-6.569,16.7-1.039,2.443-1.747,4.87-2.77,7.36-0.986,2.4-1.74,5.068-2.533,7.675-0.317,1.046-.283,1.977-0.554,3.087a14.419,14.419,0,0,0-.316,5.381c1.132,4.89,3.78,7.88,6.806,10.841a17.255,17.255,0,0,0,1.662,1.424c0.488,0.368.856,0.975,1.346,1.345a2.552,2.552,0,0,1,1.029.95,5.4,5.4,0,0,0-.871,1.187c-0.728,1.013-1.543,1.983-2.3,3.007-1.307,1.781-2.73,3.484-4.036,5.3a18.959,18.959,0,0,0-1.662,2.215h-0.159a10.091,10.091,0,0,0-2.137-1.82,35.446,35.446,0,0,1-3.4-3.323l-2.058-1.978c-0.836-1.106-1.874-2.056-2.691-3.166a44.563,44.563,0,0,1-3.719-5.776,33.419,33.419,0,0,1-2.454-7.755,19.755,19.755,0,0,1-.158-5.777q0.079-1.346.158-2.69c0.592-2.525.848-5.1,1.583-7.36s1.1-4.436,1.979-6.568c0.82-1.992,1.455-4.071,2.3-6.093,1.683-4.054,3.382-8.2,5.065-12.265,0.562-1.355.862-2.665,1.425-4.036a75.068,75.068,0,0,0,2.532-7.992q0.277-1.543.554-3.087a11.873,11.873,0,0,0-1.108-7.438c-2.322-3.489-7.4-4.505-11.951-5.777-1.238-.345-2.524-0.414-3.719-0.712a5.111,5.111,0,0,1-1.425-.237,0.285,0.285,0,0,1-.079-0.158Q435.04,117.851,436.109,110.569ZM84.152,128.057l0.238,0.08,0.316,4.747v1.741a22.939,22.939,0,0,1-.079,4.274v1.345c-0.216.982-.08,2.068-0.317,3.086-0.861,3.709-1.368,7.3-3.087,10.129a60.121,60.121,0,0,1-3.561,5.064l-1.425,1.346a41.419,41.419,0,0,1-7.44,5.7c-7.656,4.824-16.9,8.234-25.564,12.028a88.631,88.631,0,0,0-11.793,5.777c-1.389.875-2.663,1.95-3.957,2.928a11.066,11.066,0,0,0-2.928,4.035,9.126,9.126,0,0,0,.158,5.3,34.752,34.752,0,0,0,4.195,8.388c0.6,0.951,1.2,1.808,1.82,2.691a5.582,5.582,0,0,0,.95,1.345v0.079H31.6a13.274,13.274,0,0,1-2.928,2.216c-2,1.411-3.925,2.986-5.936,4.431-0.674.484-2.248,2.053-3.008,2.216-0.891-1.587-2.193-2.977-3.166-4.511a53.29,53.29,0,0,1-5.857-11.632c-0.545-1.632-.769-3.369-1.187-5.144-0.647-2.749.031-6.879,0.712-8.942,0.347-1.052.529-1.969,0.95-2.927,2.588-5.9,7.44-9.766,12.663-13.057,6.474-4.08,13.955-6.909,21.369-10.129,3.033-1.317,6.132-2.805,9.1-4.115,5.246-2.315,11.016-5.422,13.85-10.129,0.994-1.651,1.085-3.849,1.583-6.014q0.04-1.107.079-2.216a18.712,18.712,0,0,0,.079-4.194,19.51,19.51,0,0,1-.237-3.877h0.158c0.742-.449,2.5-0.249,3.482-0.475,2.437-.561,5.184-0.543,7.6-1.108C81.788,128.326,83.517,128.48,84.152,128.057Zm380.132,34.819a20.4,20.4,0,0,1,3.483,1.582,60.824,60.824,0,0,1,9.181,4.986,32.646,32.646,0,0,1,8.943,8.071,26.08,26.08,0,0,1,3.324,6.884c0.281,0.849.251,1.611,0.475,2.533a11.368,11.368,0,0,1,.237,4.51c-0.244,1.046.011,1.958-.237,2.928a58.061,58.061,0,0,1-3.087,9.259,56.631,56.631,0,0,1-5.7,9.416c-0.987,1.4-1.866,2.8-2.849,4.194-2.47,3.5-5.242,6.791-7.757,10.287-3.659,5.09-7.48,9.913-10.051,16.143-2.609,6.322.422,12.709,3.087,16.935,0.75,1.19,1.556,2.4,2.374,3.561a3.6,3.6,0,0,1,.871,1.266,17.887,17.887,0,0,1-2.454,1.82c-1.855,1.333-3.663,2.766-5.54,4.115-0.951.683-1.884,1.429-2.849,2.136a4.093,4.093,0,0,1-1.029.792v-0.08a21.9,21.9,0,0,1-2.137-3.086,73.932,73.932,0,0,1-4.353-7.042,42.592,42.592,0,0,1-3.087-7.993c-1.6-5.276-.455-13.241,1.267-17.409a43.663,43.663,0,0,1,2.691-6.172c1.969-3.24,3.872-6.442,6.015-9.5,3.009-4.291,6.354-8.321,9.418-12.582,3.255-4.528,6.732-8.8,9.1-14.244,0.76-1.747,2.167-4.965,1.346-7.676-1.468-4.847-7.72-7.9-12.03-10.049-1.02-.509-2.086-0.986-3.087-1.425a3.615,3.615,0,0,1-1.108-.475,5.931,5.931,0,0,0,.475-1.266c0.467-1.1.848-2.259,1.346-3.4,0.76-1.75,1.429-3.567,2.216-5.381A23.041,23.041,0,0,0,464.284,162.876ZM58.747,174.9h0.237a16.788,16.788,0,0,0,.871,2.374c0.62,1.656,1.037,3.391,1.583,5.064,0.689,2.111.811,4.383,1.345,6.647,0.206,0.872.048,1.858,0.238,2.691v1.345a19.13,19.13,0,0,1-.4,4.51c-0.15.594-.076,1.016-0.237,1.583a33.017,33.017,0,0,1-1.425,4.194,35.426,35.426,0,0,1-4.036,6.568c-0.454.618-1.125,1.135-1.583,1.741a24.6,24.6,0,0,1-4.59,4.669c-0.708.535-1.267,1.361-1.979,1.9-1.911,1.443-3.673,3-5.619,4.431-4.249,3.118-8.395,6.443-12.663,9.575-1.042.765-1.977,1.76-3.008,2.533s-1.916,1.608-2.928,2.373l-0.712.792c-2.738,2.071-6.016,5.98-6.965,9.812a12.4,12.4,0,0,0,.317,4.827,21.98,21.98,0,0,0,3.562,6.252c0.467,0.63,1.193,1.121,1.662,1.741a21.123,21.123,0,0,0,2.058,2.136l0.791,0.871c1.047,0.792,1.893,1.83,2.928,2.611a1.976,1.976,0,0,1,1.029,1.029,17.341,17.341,0,0,0-2.216,3.007c-1.361,1.893-2.973,3.663-4.353,5.539-0.453.616-1.8,2.912-2.454,3.086a8.748,8.748,0,0,0-1.979-1.662c-0.43-.324-0.759-0.863-1.187-1.187-0.724-.547-1.382-1.14-2.058-1.741a28.279,28.279,0,0,1-3.4-3.561c-0.86-1.138-2.072-2.08-2.928-3.244a37.317,37.317,0,0,1-5.778-10.762c-0.41-1.255-.487-2.628-0.791-3.957L2,250.237a23.968,23.968,0,0,1,.554-6.251,27.425,27.425,0,0,1,.871-3.165c2.1-5.1,5.346-8.908,8.943-12.5A131.767,131.767,0,0,1,28.83,214.944c2.39-1.717,4.669-3.623,7.044-5.381,0.66-.488,1.245-1.17,1.9-1.661,0.826-.62,1.553-1.279,2.374-1.9l0.712-.792c2.578-1.949,6.063-5.934,7.044-9.416a13.624,13.624,0,0,0,0-5.619c-0.419-1.761-.5-3.312-1.029-4.906L45.292,180.6a16.044,16.044,0,0,0,2.77-1.187c2.232-.977,4.479-1.819,6.648-2.769C55.71,176.206,58.076,175.543,58.747,174.9Zm420.812,46.371H479.8a8.9,8.9,0,0,0,2.057,1.741c0.43,0.324.759,0.863,1.188,1.187a24.625,24.625,0,0,1,2.532,2.216c5.083,5.079,9.217,9.908,11.714,17.646,0.437,1.355.384,2.884,0.712,4.352v2.295a19.743,19.743,0,0,1-.633,5.7,33.617,33.617,0,0,1-1.187,3.8c-2.035,4.667-5.269,8.276-8.627,11.632a120.93,120.93,0,0,1-15.987,12.978c-2.374,1.671-4.612,3.575-6.965,5.3-0.662.486-1.244,1.172-1.9,1.662-3.892,2.909-9.233,7.605-10.684,12.819a12.162,12.162,0,0,0,0,4.827c0.385,1.649.386,3.1,0.871,4.59q0.909,2.73,1.82,5.46a24.278,24.278,0,0,0-4.116,1.741c-2.187.948-4.31,1.666-6.49,2.611a14.452,14.452,0,0,1-3.086,1.345,15.628,15.628,0,0,0-.871-2.294c-0.525-1.272-.842-2.687-1.266-3.957-0.754-2.261-1-4.7-1.583-7.122q-0.079-1.029-.158-2.057c-0.857-3.94.469-9.413,1.583-12.028,3.2-7.515,8.978-13.3,15.116-17.884,2.114-1.578,4.1-3.435,6.253-4.986,3.075-2.216,6.051-4.488,9.1-6.726,1.179-.865,2.238-1.974,3.4-2.849a35.787,35.787,0,0,0,7.281-6.963c1.6-2.153,3.658-4.383,3.166-8.151a10.166,10.166,0,0,0,0-1.5,19.811,19.811,0,0,0-3.878-7.439c-0.47-.628-1.194-1.121-1.662-1.741a19.631,19.631,0,0,0-1.9-1.978l-0.712-.791c-0.885-.669-1.584-1.559-2.454-2.216a7.243,7.243,0,0,1-1.741-1.5,3.055,3.055,0,0,0,.633-0.871c0.651-.924,1.375-1.839,2.058-2.769,1.406-1.917,2.931-3.759,4.353-5.7A19.346,19.346,0,0,0,479.559,221.275ZM45.134,225.786a3.326,3.326,0,0,1,1.029,1.345c1.034,1.47,2.019,2.943,3.008,4.51a60.251,60.251,0,0,1,4.749,9.259c0.423,1.028.536,2.051,0.871,3.165,0.4,1.327,1.152,4.468.633,6.014a5.747,5.747,0,0,0,.079.633q-0.039,1.662-.079,3.324c-0.311,1.343-.318,2.758-0.712,4.035-4.2,13.595-12.843,22.425-20.182,32.84-3.595,5.1-7.642,9.854-9.5,16.7a7.784,7.784,0,0,0,.792,5.619c2.317,3.73,6.322,5.844,10.289,7.913,1.267,0.66,2.616,1.194,3.878,1.82,0.43,0.213,1.061.194,1.187,0.712a17.576,17.576,0,0,0-1.187,3.086c-0.942,2.214-1.91,4.52-2.849,6.726-0.392.922-.74,1.826-1.108,2.691a1.857,1.857,0,0,1-.475,1.029,10.556,10.556,0,0,0-2.533-1.108,40.238,40.238,0,0,1-4.511-2.3l-1.266-.554c-6.178-3.755-12.331-7.6-15.354-14.481A33.525,33.525,0,0,1,10.31,313.7a16.969,16.969,0,0,1-.158-6.251c0.248-1.082.112-2.009,0.4-3.007a44.539,44.539,0,0,1,3.166-8.467c4.587-8.786,10.357-15.623,15.908-23.344,3.252-4.524,6.973-8.947,9.339-14.323a30.837,30.837,0,0,0,1.5-4.432,9.291,9.291,0,0,0,.079-3.56c-0.042-.284.12-0.225,0.158-0.317a8.445,8.445,0,0,0-.237-2.216,33.646,33.646,0,0,0-4.432-9.1,21.426,21.426,0,0,0-2.691-3.956v-0.08h0.079a5.637,5.637,0,0,1,1.187-.87c0.736-.54,1.442-1.117,2.216-1.662,1.937-1.364,3.775-2.966,5.7-4.352A12.648,12.648,0,0,0,45.134,225.786ZM65.949,374.712a22.652,22.652,0,0,1-.712,5.144c-0.431,1.8-.387,3.665-0.791,5.381-0.222.941-.207,3.722-0.633,4.273-0.717-.432-2.328-0.315-3.245-0.554-2.168-.566-4.472-0.811-6.569-1.5-8.341-2.753-14.061-5.517-18.282-12.423-3.689-6.036-3.526-16.36-1.108-23.74,0.849-2.591,1.506-5.265,2.533-7.755,3.672-8.9,7.2-17.5,10.289-26.984,0.524-1.611.631-3.36,1.029-5.064,0.161-.689.016-1.5,0.158-2.137a2.019,2.019,0,0,0-.079-0.791v-1.266a19.511,19.511,0,0,0-.712-2.612c-1.553-3.947-4.528-6.8-7.361-9.5-0.554-.527-2.553-1.933-2.77-2.532h0.079c0.325-.973,1.906-2.455,2.533-3.323,1.411-1.956,2.863-3.815,4.274-5.777,0.63-.876,1.409-1.666,1.979-2.611h0.158a10.009,10.009,0,0,0,2.216,1.9,34.5,34.5,0,0,1,3.324,3.244l1.979,1.9c0.859,1.136,1.932,2.106,2.77,3.245a39.783,39.783,0,0,1,4.907,8.546,34.916,34.916,0,0,1,1.266,5.065c0.2,0.827.061,1.747,0.237,2.532a16.021,16.021,0,0,1-.158,4.194c-0.257,1.152-.049,2.152-0.317,3.244-0.551,2.247-.807,4.516-1.5,6.647-2.852,8.72-6.124,16.708-9.5,24.848-0.844,2.035-1.355,4.061-2.137,6.172-1.237,3.341-3.327,10.267-1.583,14.4,1.529,3.625,5.751,4.99,9.656,6.252,0.893,0.288,1.69.3,2.612,0.553A23.876,23.876,0,0,0,65.949,374.712Zm364.382-4.748c-4.893.483-9.894,1.428-14.721,2.058q-0.158-2.295-.316-4.59V363.08a38.074,38.074,0,0,1,1.266-10.762,33.128,33.128,0,0,1,3.324-7.6c5.349-8.477,16.875-13.65,26.593-17.884,7.525-3.278,15.4-6.039,22-10.208,3-1.891,6.228-3.949,7.2-7.834a9.555,9.555,0,0,0-.791-5.539,40.924,40.924,0,0,0-3.8-7.359c-0.59-.888-1.2-1.8-1.821-2.691a4.85,4.85,0,0,1-.949-1.345c0.83-.279,2.177-1.675,2.928-2.216,2.023-1.457,3.993-2.9,6.015-4.352,0.686-.493,2.227-2.05,3.008-2.216a9.268,9.268,0,0,0,.949,1.266c0.951,1.348,1.9,2.738,2.77,4.115a52.772,52.772,0,0,1,5.7,12.107c0.4,1.236.487,2.584,0.791,3.878,0.669,2.843-.092,6.983-0.791,9.1-2.5,7.557-7.157,11.721-13.3,15.589-6.666,4.2-14.358,7.126-22,10.446-2.847,1.236-5.757,2.646-8.547,3.877-5.081,2.242-11.09,5.373-13.851,9.892-1.057,1.73-1.211,3.945-1.741,6.251q-0.039,1.029-.079,2.057a21.268,21.268,0,0,0-.079,4.669A18.648,18.648,0,0,1,430.331,369.964ZM61.675,331.981a9.584,9.584,0,0,1,2.533,1.187,49.613,49.613,0,0,1,6.49,3.561c4.981,3.149,9.557,6.951,12.03,12.582a46.8,46.8,0,0,1,2.216,7.913c0.233,0.974.107,2,.317,2.928v1.266a22.987,22.987,0,0,1,0,5.618v1.5c-0.277,1.238-.123,2.752-0.4,3.956L84.785,374c-0.369,1.61-.342,3.489-0.712,5.064l-0.079,1.187c-0.378,1.584-.309,3.321-0.712,4.986-0.429,1.772-.353,3.73-0.791,5.618-0.328,1.413-.212,2.979-0.554,4.511-0.236,1.056-.154,2.405-0.4,3.481v1.267a14.193,14.193,0,0,0-.079,4.431L81.541,407c0.548,2.416.788,4.549,1.979,6.252a11.91,11.91,0,0,0,1.662,1.5c1.756,1.729,3.3,2.325,6.015,3.086,1.067,0.3,2.095.14,3.245,0.4,0.925,0.2,2.1-.073,3.166.158a5.1,5.1,0,0,0,1.741.079c0.693-.153,1.742.1,2.533-0.079l4.036-.316v0.158c0.469,0.755.379,3.12,0.633,4.194,0.354,1.5.259,3.162,0.633,4.748a34.839,34.839,0,0,1,.792,5.618l-4.828.4-4.67.079a40.961,40.961,0,0,1-10.21-.95C87.05,432,86,431.9,84.865,431.529a24.872,24.872,0,0,1-9.972-5.935A26.579,26.579,0,0,1,72.2,422.9a29.129,29.129,0,0,1-4.353-8.626,33.969,33.969,0,0,1-1.266-9.891,23.029,23.029,0,0,1,.079-4.273v-1.5c0.2-.915.12-2.11,0.317-3.007l0.079-1.662c0.283-1.267.27-2.789,0.554-4.035q0.079-.911.158-1.82c0.364-1.576.423-3.411,0.791-4.986,0.6-2.567.534-5.38,1.108-7.913l0.158-1.978c0.335-1.5.216-3.342,0.554-4.907v-1.186a13.676,13.676,0,0,0,.079-4.194V361.26c-0.18-.834-0.1-1.762-0.317-2.612-1.339-5.36-3.907-7.352-7.994-9.891a37.883,37.883,0,0,0-4.274-2.3c-0.539-.236-1.554-0.38-1.662-1.029a5.175,5.175,0,0,0,.554-1.345c0.429-1,.81-2.038,1.266-3.086,0.792-1.822,1.477-3.729,2.3-5.618A14.274,14.274,0,0,0,61.675,331.981Zm401.58,7.992a4.264,4.264,0,0,0,.475,1.187c0.51,1.22.861,2.469,1.346,3.64a75.047,75.047,0,0,1,2.374,8.151c0.442,1.555.417,3.221,0.792,4.827q0.039,1.029.079,2.057a16.3,16.3,0,0,1-.4,6.094,29.065,29.065,0,0,1-.95,3.8,23.317,23.317,0,0,1-8.152,10.445c-4.5,3.167-9.819,4.615-15.829,6.331l-8.072,1.5-2.137.238c-2.5.613-5.393,0.584-7.915,1.187l-1.187.079c-1.558.377-3.278,0.311-4.907,0.712-1.762.434-3.658,0.479-5.461,0.95-4.607,1.2-9.263,2.043-12.663,4.431a12.273,12.273,0,0,0-2.374,2.374c-0.175.211-.248-0.029-0.4,0.079a13.25,13.25,0,0,0-1.346,1.741c-2.152,3.4-3.592,9.349-4.194,14.244a17.537,17.537,0,0,1-3.957-.554l-10.764-1.5a17.59,17.59,0,0,1,.633-3.481c0.507-1.962.688-3.843,1.266-5.619,0.344-1.055.448-1.981,0.792-3.007,0.524-1.565,1.268-3.155,1.9-4.589a12.178,12.178,0,0,1,.633-1.5,31.708,31.708,0,0,1,15.2-13.532c4.184-1.821,8.923-2.637,13.771-3.877,1.7-.435,3.49-0.472,5.145-0.87,1.84-.444,3.762-0.37,5.54-0.792l1.187-.079c1.994-.469,4.186-0.375,6.253-0.87,1.309-.314,2.746-0.29,4.115-0.633,3.094-.777,6.356-1.13,9.181-2.058,3.774-1.24,7.438-2.379,9.339-5.46,1.055-1.71,1.3-5.1.712-7.518l-0.237-1.74c-0.574-2.041-1.024-4.085-1.741-6.014-0.341-.917-0.637-1.9-1.029-2.849a8.411,8.411,0,0,1-.713-1.82,24.519,24.519,0,0,0,3.958-1.741c2.3-1,4.576-1.769,6.885-2.77A12.32,12.32,0,0,1,463.255,339.973ZM88.03,377.64a13.471,13.471,0,0,1,2.612.475c2.027,0.51,4.03.672,5.857,1.266l2.612,0.633c2.18,0.727,4.31,1.553,6.331,2.453a28.777,28.777,0,0,1,5.3,3.482,7.139,7.139,0,0,1,1.741,1.5v0.238l0.554,0.4a20.1,20.1,0,0,1,1.979,2.057,40.627,40.627,0,0,1,4.907,8.309c1.759,4.062,2.522,8.693,3.719,13.373,0.481,1.877.507,3.86,0.95,5.7,0.493,2.043.4,4.193,0.871,6.172q0.039,0.594.079,1.187c0.5,2.129.421,4.558,0.95,6.726,0.338,1.389.337,2.9,0.712,4.352,0.679,2.632,1.1,5.422,1.9,7.835,1.146,3.454,2.322,6.952,5.145,8.7,3.882,2.41,10.621.336,14.246-.87,0.976-.325,1.828-0.514,2.77-0.871a17.053,17.053,0,0,1,3.087-1.187,22.05,22.05,0,0,0,1.741,3.957c0.921,2.126,1.611,4.206,2.532,6.33a15.865,15.865,0,0,1,1.425,3.4,5.909,5.909,0,0,0-1.583.633c-1.009.424-2.047,0.709-3.007,1.108a75.274,75.274,0,0,1-7.994,2.374l-4.432.791-1.5.079a16.136,16.136,0,0,1-6.015-.079c-1.286-.317-2.4-0.253-3.561-0.633a25.167,25.167,0,0,1-6.649-3.165c-0.648-.455-1.2-1.114-1.82-1.583a9.543,9.543,0,0,1-1.82-1.662,37.107,37.107,0,0,1-4.67-7.28,80.456,80.456,0,0,1-3.324-10.129c-0.861-2.972-.971-6.2-1.741-9.258-0.367-1.454-.29-2.972-0.633-4.352q-0.476-3.759-.95-7.518c-0.555-2.307-.506-4.79-1.108-7.122-0.361-1.4-.463-2.915-0.87-4.352-1.125-3.967-2.11-7.793-4.195-10.762a10.774,10.774,0,0,0-2.137-2.057,0.209,0.209,0,0,1-.079-0.317,7.94,7.94,0,0,0-1.5-1.266c-3.821-2.549-9.168-3.289-14.483-4.352v-0.633a4.488,4.488,0,0,0,.158-1.187c0.238-1.025.21-2.142,0.475-3.245,0.367-1.525.328-3.2,0.712-4.827A33.7,33.7,0,0,0,88.03,377.64Zm344.755,14.4q0.2,2.493.395,4.985,0.041,2.336.08,4.669a40.17,40.17,0,0,1-1.029,10.367c-0.251.9-.272,1.675-0.554,2.532a26.133,26.133,0,0,1-6.253,10.683,24.584,24.584,0,0,1-10.368,6.647c-1.935.634-4.037,0.793-6.173,1.266l-2.928.158a23.816,23.816,0,0,1-5.778,0h-1.5c-1.239-.271-2.75-0.13-3.957-0.4l-1.5-.079c-1.22-.274-2.686-0.28-3.878-0.554-1.9-.436-3.889-0.368-5.7-0.791-2.393-.56-4.94-0.488-7.281-1.029l-1.821-.158c-1.315-.3-2.924-0.26-4.274-0.554h-0.949a15.533,15.533,0,0,0-2.612-.237h-1.583a6.96,6.96,0,0,0-2.295,0h-1.662c-0.8.173-1.7,0.109-2.533,0.316-5.37,1.342-7.349,3.9-9.893,7.993-0.871,1.4-1.638,2.953-2.374,4.431-0.255.511-.3,1.395-0.95,1.5a4.552,4.552,0,0,0-1.187-.475c-1.045-.455-2.143-0.867-3.245-1.346-1.954-.849-3.985-1.593-6.015-2.453a12.814,12.814,0,0,0-3.008-1.187,9.911,9.911,0,0,1,1.346-2.927c1.109-2.123,2.176-4.154,3.4-6.094,3.156-4.989,6.942-9.551,12.584-12.028a47.843,47.843,0,0,1,7.915-2.215c0.961-.234,2.006-0.11,2.928-0.317H361.4a23.015,23.015,0,0,1,5.619,0h1.5c1.238,0.277,2.752.123,3.957,0.4l1.5,0.079c1.61,0.369,3.49.341,5.065,0.712l1.188,0.079c1.584,0.379,3.318.315,4.986,0.712,1.772,0.423,3.754.358,5.619,0.792,1.165,0.27,2.616.28,3.8,0.554l1.5,0.079c0.831,0.184,1.925.126,2.77,0.316H400.1a14,14,0,0,0,4.353.079l2.533-.079c2.487-.563,4.593-0.834,6.331-2.057a11.71,11.71,0,0,0,1.425-1.583c1.873-1.887,2.49-3.858,3.245-6.884,0.3-1.192.035-2.352,0.316-3.64a22.449,22.449,0,0,0,.079-4.194v-1.741q-0.158-2.137-.316-4.273h0.158c0.756-.47,3.121-0.38,4.195-0.634,1.5-.353,3.158-0.264,4.748-0.633A34.316,34.316,0,0,1,432.785,392.042ZM128,415.623l4.749-.316h2.058a22.113,22.113,0,0,1,4.115.079h1.346c0.952,0.21,2.012.085,3.007,0.317,3.79,0.879,7.4,1.412,10.289,3.165,12.9,7.831,17.908,24.053,24.218,38.458a84.488,84.488,0,0,0,5.541,11.237c0.855,1.358,1.892,2.61,2.849,3.877a11.16,11.16,0,0,0,4.115,3.007,9.139,9.139,0,0,0,5.3-.158,35.784,35.784,0,0,0,8.627-4.352c0.979-.619,1.859-1.258,2.77-1.9a4.211,4.211,0,0,0,1.029-.713h0.079v0.08a13.7,13.7,0,0,1,2.216,2.927c1.384,1.925,2.967,3.773,4.353,5.7a20.962,20.962,0,0,0,2.295,3.086,0.268,0.268,0,0,1-.079.158,12.516,12.516,0,0,1-2.612,1.82,74.677,74.677,0,0,1-8.627,5.144,40.735,40.735,0,0,1-7.756,2.849l-2.928.475h-1.029a12.222,12.222,0,0,1-4.749-.238c-0.92-.229-1.683-0.195-2.532-0.475a26.511,26.511,0,0,1-7.44-3.877,14.033,14.033,0,0,1-3.087-2.77c-0.435-.576-1.144-1-1.582-1.582-1.321-1.751-2.693-3.506-3.879-5.381-4.341-6.869-7.388-15.1-10.763-22.87-2.25-5.174-4.358-10.216-7.2-14.718a20.55,20.55,0,0,0-4.749-5.777c-1.766-1.3-3.808-1.836-6.332-2.453-1.079-.264-2.355.011-3.482-0.237a18.687,18.687,0,0,0-4.195-.079l-3.878.237v-0.158a4.2,4.2,0,0,1-.158-1.108c-0.264-1.116-.2-2.352-0.475-3.561Zm246.7,18.438a12.48,12.48,0,0,1,3.007.4c1.263,0.3,2.552.273,3.72,0.554l7.993,1.108v0.474c-0.445.741-.447,3.023-0.712,4.036-0.587,2.244-.941,4.568-1.662,6.726-3.354,10.047-7.784,16.339-18.282,19.309-4.254,1.2-10.892.434-14.642-.633-0.816-.233-1.507-0.217-2.3-0.475-2.785-.911-5.647-1.593-8.311-2.691-7.6-3.134-15.019-6.032-22.872-8.942-2-.742-4.233-1.285-6.411-1.9-0.932-.262-1.781-0.171-2.77-0.395a13.169,13.169,0,0,0-6.173.237,20.272,20.272,0,0,0-5.62,3.324c-0.343.256-.61,0.692-0.949,0.949a12.943,12.943,0,0,0-2.533,2.453l-1.029.95a18.453,18.453,0,0,0-2.374,2.769,0.269,0.269,0,0,1-.159-0.079c-0.984-.326-1.809-1.4-2.611-1.978-2.054-1.482-3.978-3.122-6.015-4.59-0.56-.4-2.9-1.878-3.087-2.374a10.028,10.028,0,0,0,1.82-2.136,35.341,35.341,0,0,1,3.324-3.4l1.979-2.057c1.105-.837,2.057-1.876,3.166-2.691a39.785,39.785,0,0,1,8.547-4.906,34.7,34.7,0,0,1,5.066-1.266c0.826-.2,1.74-0.06,2.532-0.238a16.026,16.026,0,0,1,4.2.159l2.137,0.158c2.341,0.564,4.7.711,6.886,1.424,2.009,0.656,4.143,1.1,6.094,1.9s3.969,1.4,5.936,2.215c4.661,1.935,9.414,3.841,14.087,5.777,1.833,0.759,3.645,1.2,5.54,1.9,3.29,1.218,10.554,3.385,14.642,1.662,4.287-1.807,5.376-7.13,6.727-11.949A27.389,27.389,0,0,0,374.693,434.061Zm-183.141,2.928a26.47,26.47,0,0,1,10.763,1.662c7.97,3.3,14.585,10.547,19.391,17.092,0.6,0.812,1.38,1.561,1.978,2.374,2.379,3.236,4.748,6.416,7.123,9.655,0.776,1.057,1.754,2.035,2.533,3.086,1,1.344,2.085,2.55,3.087,3.877,0.37,0.49.977,0.858,1.345,1.345a14.985,14.985,0,0,0,2.849,2.849c0.369,0.279.658,0.751,1.029,1.029a15.946,15.946,0,0,0,6.015,3.165,12.42,12.42,0,0,0,4.828-.316,21.941,21.941,0,0,0,6.332-3.64c0.6-.447,1.071-1.137,1.662-1.583a20.352,20.352,0,0,0,2.057-1.978l0.871-.792c0.813-1.075,1.889-1.944,2.691-3.007a1.976,1.976,0,0,1,1.029-1.028,17.381,17.381,0,0,0,3.007,2.215c1.893,1.36,3.651,2.99,5.54,4.353,0.6,0.434,2.921,1.831,3.087,2.453a5.945,5.945,0,0,0-1.187,1.424c-0.3.4-.807,0.709-1.108,1.108-0.717.949-1.509,1.807-2.3,2.69a28.346,28.346,0,0,1-3.562,3.4c-1.139.86-2.081,2.072-3.245,2.928a37.34,37.34,0,0,1-10.763,5.777c-1.281.418-2.668,0.479-4.037,0.791l-2.453.079a23.62,23.62,0,0,1-6.174-.554,27.606,27.606,0,0,1-3.165-.87c-5.109-2.1-8.907-5.344-12.5-8.942a129.018,129.018,0,0,1-13.138-16.143c-1.6-2.222-3.357-4.349-4.986-6.568-0.586-.8-1.388-1.5-1.979-2.3-2.8-3.746-7.5-9.052-12.426-10.525a12.277,12.277,0,0,0-5.065-.079c-1.769.414-3.316,0.433-4.907,0.95l-5.223,1.741A23.129,23.129,0,0,0,178.968,451c-0.948-2.186-1.663-4.314-2.612-6.489a16.374,16.374,0,0,1-1.5-3.482h0.158c0.823-.614,2.144-0.728,3.166-1.108,2.55-.949,5.392-1.56,8.231-2.295,1.042-.269,2.153-0.242,3.166-0.475C190.179,437.008,191.08,437.286,191.552,436.989Zm57.063,7.439c9.878-.317,16.619,3.161,22.635,6.963,7.159,4.524,13.482,9.694,20.261,14.56,4.113,2.953,8.048,5.883,13.059,7.993,1.221,0.514,4.127,1.65,6.174,1.187,4.989-1.129,7.761-6.243,9.893-10.287,0.7-1.332,1.383-2.76,1.978-4.115,0.24-.546.415-1.755,1.029-1.9a7.12,7.12,0,0,0,1.5.554c0.888,0.368,1.829.708,2.77,1.107,3.029,1.285,6.284,2.434,9.26,3.878a80.466,80.466,0,0,1-9.418,16.618,14.914,14.914,0,0,1-2.77,2.769c-0.949.717-1.776,1.676-2.77,2.374a24.111,24.111,0,0,1-7.836,3.324,20.7,20.7,0,0,1-9.181.158,46.694,46.694,0,0,1-6.885-2.137c-10.711-4.648-18.809-12.3-27.859-18.675-4.507-3.173-8.82-6.377-14.325-8.625a11.973,11.973,0,0,0-5.857-.712c-0.283.041-.225-0.121-0.317-0.159a8.408,8.408,0,0,0-2.216.238,31.28,31.28,0,0,0-8.31,3.8c-1.225.772-2.434,1.628-3.64,2.453a2.947,2.947,0,0,1-1.188.792,12.368,12.368,0,0,1-1.9-2.533c-1.412-1.964-2.928-3.873-4.353-5.855-0.608-.846-1.276-1.666-1.9-2.533a3.509,3.509,0,0,1-.712-0.949,11.22,11.22,0,0,0,1.5-1.108c1.044-.736,2.122-1.44,3.166-2.137a55.266,55.266,0,0,1,8.626-4.668,43.063,43.063,0,0,1,6.411-1.979Z"/>
</svg>
