<svg xmlns="http://www.w3.org/2000/svg" width="100" height="100" viewBox="0 0 500 500">
  <defs>
    <style>
      .cls-1 {
        fill-rule: evenodd;
      }
    </style>
  </defs>
  <path id="psd-dude.com_circle_shape_1" data-name="psd-dude.com(circle shape) 1" class="cls-1" d="M250.5,467.989c-120.116,0-217.489-97.373-217.489-217.489S130.384,33.011,250.5,33.011,467.989,130.384,467.989,250.5,370.616,467.989,250.5,467.989ZM458.755,272.241a6.173,6.173,0,1,0-6.772,5.51A6.174,6.174,0,0,0,458.755,272.241Zm1.094-21.353a6.174,6.174,0,1,0-6.174,6.173A6.173,6.173,0,0,0,459.849,250.888ZM455.8,291.833a6.173,6.173,0,1,0-7.263,4.844A6.173,6.173,0,0,0,455.8,291.833Zm-5.257,20.724a6.173,6.173,0,1,0-7.72,4.077A6.172,6.172,0,0,0,450.541,312.557Zm-6.6,18.3a6.173,6.173,0,1,0-8.066,3.341A6.174,6.174,0,0,0,443.943,330.854Zm-9.182,19.309a6.174,6.174,0,1,0-8.365,2.5A6.174,6.174,0,0,0,434.761,350.163Zm-18.794,18.665a6.173,6.173,0,1,0-1.7-8.564A6.174,6.174,0,0,0,415.967,368.828Zm-12.916,16.251a6.173,6.173,0,1,0-.811-8.693A6.174,6.174,0,0,0,403.051,385.079Zm-13.136,13.567a6.174,6.174,0,1,0,0-8.731A6.176,6.176,0,0,0,389.915,398.646Zm-15.826,13.433a6.174,6.174,0,1,0,.892-8.685A6.173,6.173,0,0,0,374.089,412.079Zm-15.821,10.944a6.173,6.173,0,1,0,1.71-8.561A6.173,6.173,0,0,0,358.268,423.023ZM340.116,433.1a6.173,6.173,0,1,0,2.576-8.342A6.172,6.172,0,0,0,340.116,433.1ZM322.788,440.6a6.173,6.173,0,1,0,3.341-8.066A6.174,6.174,0,0,0,322.788,440.6Zm-19.762,6.354a6.173,6.173,0,1,0,4.147-7.682A6.173,6.173,0,0,0,303.026,446.956Zm-18.806,4.056a6.174,6.174,0,1,0,4.857-7.254A6.174,6.174,0,0,0,284.22,451.012ZM263.6,453.371a6.173,6.173,0,1,0,5.573-6.72A6.174,6.174,0,0,0,263.6,453.371Zm-12.708,6.478a6.174,6.174,0,1,0-6.173-6.174A6.174,6.174,0,0,0,250.888,459.849Zm-21.353-1.094a6.173,6.173,0,1,0-5.51-6.772A6.174,6.174,0,0,0,229.535,458.755ZM209.943,455.8a6.173,6.173,0,1,0-4.844-7.263A6.173,6.173,0,0,0,209.943,455.8Zm-20.725-5.257a6.173,6.173,0,1,0-4.076-7.72A6.173,6.173,0,0,0,189.218,450.541Zm-18.3-6.6a6.173,6.173,0,1,0-3.341-8.066A6.174,6.174,0,0,0,170.922,443.943Zm-19.309-9.182a6.174,6.174,0,1,0-2.5-8.365A6.174,6.174,0,0,0,151.613,434.761Zm-16.969-10.23a6.173,6.173,0,1,0-1.7-8.564A6.172,6.172,0,0,0,134.644,424.531Zm-17.135-12.787a6.173,6.173,0,1,0-.812-8.693A6.172,6.172,0,0,0,117.509,411.744Zm-14.379-13.1a6.174,6.174,0,1,0,0-8.731A6.176,6.176,0,0,0,103.13,398.646ZM88.805,382.773a6.173,6.173,0,1,0,.892-8.684A6.174,6.174,0,0,0,88.805,382.773ZM77.042,366.829a6.173,6.173,0,1,0,1.711-8.561A6.173,6.173,0,0,0,77.042,366.829ZM66.1,348.457a6.173,6.173,0,1,0,2.576-8.341A6.173,6.173,0,0,0,66.1,348.457Zm-8.271-17.6a6.173,6.173,0,1,0,3.341-8.066A6.174,6.174,0,0,0,57.833,330.854Zm-7.161-20.146a6.173,6.173,0,1,0,4.148-7.682A6.172,6.172,0,0,0,50.672,310.708Zm-4.766-19.233a6.173,6.173,0,1,0,4.857-7.255A6.173,6.173,0,0,0,45.907,291.475Zm-3.074-21.158A6.173,6.173,0,1,0,48.4,263.6,6.173,6.173,0,0,0,42.832,270.317ZM48.1,257.061a6.173,6.173,0,1,0-6.173-6.173A6.173,6.173,0,0,0,48.1,257.061Zm-5.079-27.526a6.173,6.173,0,1,0,6.772-5.51A6.173,6.173,0,0,0,43.021,229.535Zm2.957-19.592a6.173,6.173,0,1,0,7.263-4.844A6.173,6.173,0,0,0,45.978,209.943Zm5.257-20.725a6.173,6.173,0,1,0,7.72-4.076A6.174,6.174,0,0,0,51.234,189.218Zm6.6-18.3a6.173,6.173,0,1,0,8.066-3.341A6.174,6.174,0,0,0,57.833,170.922Zm9.182-19.309a6.173,6.173,0,1,0,8.365-2.5A6.173,6.173,0,0,0,67.015,151.613Zm18.794-18.665a6.173,6.173,0,1,0,1.7,8.564A6.174,6.174,0,0,0,85.809,132.948ZM98.725,116.7a6.173,6.173,0,1,0,.812,8.692A6.173,6.173,0,0,0,98.725,116.7Zm13.136-13.567a6.174,6.174,0,1,0,0,8.731A6.174,6.174,0,0,0,111.861,103.13ZM61.284,250.5C61.284,355,146,439.716,250.5,439.716S439.716,355,439.716,250.5,355,61.284,250.5,61.284,61.284,146,61.284,250.5Zm66.4-160.8a6.173,6.173,0,1,0-.892,8.685A6.174,6.174,0,0,0,127.687,89.7Zm15.821-10.944a6.173,6.173,0,1,0-1.71,8.561A6.173,6.173,0,0,0,143.508,78.753ZM161.66,68.681a6.173,6.173,0,1,0-2.577,8.341A6.174,6.174,0,0,0,161.66,68.681Zm17.328-7.507a6.173,6.173,0,1,0-3.341,8.066A6.174,6.174,0,0,0,178.988,61.174ZM198.75,54.82A6.173,6.173,0,1,0,194.6,62.5,6.173,6.173,0,0,0,198.75,54.82Zm18.805-4.057a6.173,6.173,0,1,0-4.856,7.255A6.173,6.173,0,0,0,217.555,50.763ZM238.18,48.4a6.174,6.174,0,1,0-5.573,6.721A6.174,6.174,0,0,0,238.18,48.4Zm12.708-6.478a6.173,6.173,0,1,0,6.173,6.173A6.173,6.173,0,0,0,250.888,41.927Zm21.353,1.094a6.173,6.173,0,1,0,5.51,6.772A6.173,6.173,0,0,0,272.241,43.021Zm19.592,2.957a6.173,6.173,0,1,0,4.844,7.263A6.173,6.173,0,0,0,291.833,45.978Zm20.724,5.257a6.173,6.173,0,1,0,4.077,7.72A6.173,6.173,0,0,0,312.557,51.234Zm18.3,6.6A6.173,6.173,0,1,0,334.2,65.9,6.174,6.174,0,0,0,330.854,57.833Zm19.309,9.182a6.173,6.173,0,1,0,2.5,8.365A6.173,6.173,0,0,0,350.163,67.015Zm16.969,10.23a6.173,6.173,0,1,0,1.7,8.564A6.173,6.173,0,0,0,367.132,77.245Zm17.135,12.787a6.173,6.173,0,1,0,.812,8.693A6.173,6.173,0,0,0,384.267,90.032Zm14.379,13.1a6.174,6.174,0,1,0,0,8.731A6.174,6.174,0,0,0,398.646,103.13ZM412.971,119a6.174,6.174,0,1,0-.892,8.685A6.174,6.174,0,0,0,412.971,119Zm11.763,15.945a6.174,6.174,0,1,0-1.711,8.561A6.174,6.174,0,0,0,424.734,134.947Zm10.937,18.371a6.173,6.173,0,1,0-2.576,8.342A6.173,6.173,0,0,0,435.671,153.318Zm8.272,17.6a6.173,6.173,0,1,0-3.341,8.066A6.173,6.173,0,0,0,443.943,170.922Zm7.16,20.146a6.173,6.173,0,1,0-4.147,7.682A6.173,6.173,0,0,0,451.1,191.068Zm4.766,19.233a6.173,6.173,0,1,0-4.857,7.254A6.173,6.173,0,0,0,455.869,210.3Zm3.075,21.158a6.173,6.173,0,1,0-5.573,6.721A6.174,6.174,0,0,0,458.944,231.459Z"/>
</svg>
