<svg xmlns="http://www.w3.org/2000/svg" width="100" height="100" viewBox="0 0 500 500">
  <defs>
    <style>
      .cls-1 {
        fill-rule: evenodd;
      }
    </style>
  </defs>
  <path class="cls-1" d="M458.336,164.367l-16.162,22.315a200.621,200.621,0,0,1,7.929,32.823l50.359,30.964L450.1,281.433a200.671,200.671,0,0,1-7.929,32.823l16.162,22.314-27.224,4.354A202.011,202.011,0,0,1,413.518,369.7l13.723,57.539L369.7,413.518a202.011,202.011,0,0,1-28.778,17.594l-4.354,27.224-22.314-16.162a200.671,200.671,0,0,1-32.823,7.929l-30.964,50.359L219.505,450.1a200.621,200.621,0,0,1-32.823-7.929l-22.315,16.162-4.353-27.224a201.965,201.965,0,0,1-28.779-17.594L73.7,427.241,87.42,369.7a201.969,201.969,0,0,1-17.595-28.778L42.6,336.57l16.162-22.314a200.658,200.658,0,0,1-7.928-32.823L0.475,250.469l50.36-30.964a200.609,200.609,0,0,1,7.928-32.823L42.6,164.367l27.224-4.353A201.914,201.914,0,0,1,87.42,131.235L73.7,73.7,131.235,87.42a201.914,201.914,0,0,1,28.779-17.594L164.367,42.6l22.315,16.162a200.609,200.609,0,0,1,32.823-7.928l30.964-50.36,30.964,50.36a200.658,200.658,0,0,1,32.823,7.928L336.57,42.6l4.354,27.224A201.969,201.969,0,0,1,369.7,87.42L427.241,73.7l-13.723,57.538a201.965,201.965,0,0,1,17.594,28.779ZM250.5,63C354.053,63,438,146.947,438,250.5S354.053,438,250.5,438,63,354.053,63,250.5,146.947,63,250.5,63Z"/>
</svg>
