<svg xmlns="http://www.w3.org/2000/svg" width="100" height="100" viewBox="0 0 500 500">
  <defs>
    <style>
      .cls-1 {
        fill-rule: evenodd;
      }
    </style>
  </defs>
  <path id="Wave_1" data-name="Wave 1" class="cls-1" d="M215.722,15.022c12.285-.342,19.479,4.689,26.854,9.31,4.092,2.564,8.086,4.6,12.05,7.241,7.391,4.931,14.72,10.517,23.412,14.138,7.292,3.038,12.626-.855,15.149-5.862,1.03-2.044,2.106-5.341.344-7.586-0.783-2.508-3.188-4.142-6.541-4.138-0.881.823-1.582,0.745-2.066,2.069-1.625,2.341,2.456,5.523-.689,6.9-4.366,2.733-10.405-5.01-8.951-10.689,1.434-5.6,4.69-9.292,10.329-10.689,1.825-.452,3.7.358,4.82,0.69a34.471,34.471,0,0,1,12.05,6.207l2.41,2.758c6.517,4.949,11.648,12.363,16.526,18.965,2.776,3.757,6.092,7.24,8.951,11.034l3.788,3.448a29.946,29.946,0,0,0,6.541,6.552,11.29,11.29,0,0,0,15.837-2.758c1.222-1.7,3.549-4.872,1.722-7.586-0.643-2.457-2.278-2.978-3.787-4.483h-2.41c-0.73,1.018-2.049,1.71-2.41,3.1-0.5,1.909,1.282,3.051-.689,4.138a2.975,2.975,0,0,1-1.721.345c-0.928-.748-2.144-1-3.1-1.724-1.07-.813-1.482-2.477-2.41-3.448-0.21-15.466,14.176-18.328,23.067-9.655,14.5,14.143,16.6,44.167,29.265,60.343,4.7,6,16.279,4.007,18.936-2.413,0.543-1.312.38-3.392,0.344-5.173-1.162-1.287-1.227-2.8-3.1-3.448-4.131-2.557-4.6,4.937-7.575,5.517-1.317-1.313-3.02-2.278-3.787-4.138-2.861-6.942,7.026-15.5,14.46-13.448a15.526,15.526,0,0,1,7.575,5.172c5,6.763,4.975,15.964,7.23,25.861,0.926,4.063-.165,8.656.689,12.414,1,4.4-.207,9.177.688,13.1v4.138c1.164,5.123,1.145,10.582,3.1,14.827,4.272,9.282,22.749,9.167,19.28-5.173a6.047,6.047,0,0,0-4.476-1.379c-1.078,1.5-2.571,3.793-4.82,4.138-0.718-1.054-1.964-2.186-2.41-3.448-2.3-6.512,6.551-13.74,13.083-12.069,4.4,1.127,7.994,3.724,9.64,7.586,2.7,6.335,1.81,16.868,0,23.448-3.168,11.516-5.455,22.389-8.607,33.447q-0.861,5.517-1.721,11.034c-1.5,6.579,3.881,11.718,7.918,13.1,4.961,1.7,10.218-.774,11.362-4.138,0.968-1.184.7-3.575,0.344-5.173l-2.41-1.724c-2.972-.773-3.642,3.212-5.853,2.414-1.06-.358-1-0.333-1.377-1.379-1-1.182-.943-4.64,0-5.862,1.189-3.888,8.081-6.8,13.772-4.828a13.249,13.249,0,0,1,8.263,15.517c-3.97,16.621-13.634,28.242-21.691,41.034-3.6,5.71-8.16,11.55-9.984,18.965-3.039,12.355,18.026,18.76,18.592,5.862-0.918-.989-0.936-1.892-2.41-2.414-1.7-1.108-3.727.542-5.853,0.69a6.229,6.229,0,0,0-1.033-1.38c-0.074-15.359,24.93-9.079,21.346,5.862-1.894,7.893-7.443,14.355-13.083,18.62l-3.1,3.449c-4.636,3.5-8.816,7.614-13.427,11.034-6.862,5.088-16.333,11.92-20.658,19.31-3.775,6.45,1.145,14.345,6.2,16.206,3.765,1.387,8.027-.8,8.951-3.448a3.7,3.7,0,0,0,.689-2.414c-0.918-.988-0.935-1.892-2.41-2.414-1.094-.736-2.788-0.142-4.132,0a8.616,8.616,0,0,0-1.377-1.724c5.59-15.96,27.246-.815,17.559,13.448-2.509,3.694-6.464,5.88-10.329,8.276C438.071,376.971,424.8,381.02,413,386.047c-4.5,1.919-8.766,3.051-12.739,5.517-5.179,3.215-11.161,9.971-6.2,17.93,1.188,1.9,3.231,2.648,4.82,4.138,1.841,0.187,3.795.673,5.165-.345a5.176,5.176,0,0,0,3.443-4.482c-0.7-.787-1.143-2.239-2.066-2.759-1.709-.961-2.969.188-3.787-1.724a1.763,1.763,0,0,1-.345-1.034l1.722-2.414c0.89-.7,1.961-0.952,2.754-1.724,1.771-.137,3.417-0.659,5.164,0,4.482,1.688,10.295,8.3,7.919,15.517-1.119,3.4-4.414,6.532-7.23,8.275-6.04,3.74-14.257,3.675-22.379,5.517-3.289.747-7,.016-9.984,0.69-4.82,1.086-10.079-.3-14.461.69h-4.82c-6.3,1.428-13.276,1.1-17.9,4.138-4.667,3.065-6.627,11.857-2.065,16.551,1.482,1.525,5.036,4.162,7.918,2.069A2.732,2.732,0,0,0,350,450.528a4.569,4.569,0,0,0,.344-2.414c-1.379-1.221-3.884-2.53-4.131-4.827a1.244,1.244,0,0,0,.344-0.69c1.87-1.02,5.321-3.6,7.919-1.724,4.86,1.256,9.1,9.645,6.2,16.206-2.042,4.609-7,6.62-12.394,7.931s-14.434-.672-18.248-1.724c-13.2-3.641-25.376-6.35-38.56-9.655-13.4-3.358-20.634,4.545-17.559,16.207,2.325,1.568,3.206,3.355,7.23,3.448,1.569-1.283,2.767-1.517,3.1-4.138-1.053-1.266-2.452-2.978-2.754-4.827a1.248,1.248,0,0,0,.344-0.69c2.918-1.44,4.985-1.151,8.263-.345,1.524,2.209,3.375,3.781,4.132,6.9,3.024,12.445-10.752,17.164-21,13.793-14.478-4.76-26.112-14.434-38.216-22.068-4.087-2.578-8.573-5.834-13.428-7.586-7.665-2.767-12.513.9-15.148,6.207-0.585,1.175-1.671,3.564-1.033,5.861,0.79,2.846,2.993,3.749,4.82,5.518h3.1c0.969-1.436,1.883-1.738,2.065-4.138A7.117,7.117,0,0,1,214,464.321c1.3-1.231,2.028-1.463,4.82-1.38,1.881,1.638,4.114,1.973,5.165,4.483,4.595,10.981-7.9,19.9-18.248,15.517-6.667-2.822-12.728-8.984-16.87-14.483-1.115-1.479-3.013-2.644-4.132-4.137-4.805-6.418-10.391-12.3-15.148-18.621-2.6-3.449-5.481-7.119-8.952-9.655-7.868-5.747-19.668-3.666-19.625,8.276,0.781,0.994.947,2.431,1.722,3.448l2.41,1.724c7.555-.076,2.5-5.45,5.853-7.241,2.849-1.687,5.63,3.107,6.886,4.483,1.114,14.443-13.268,19.443-22.379,10.344-10.19-10.175-14.729-27.42-20.658-41.723-2.456-5.927-4.066-11.725-7.574-16.551-1.7-2.343-5.1-5.4-8.263-6.207-6.19-1.581-16.123,6.451-12.05,12.069,0.527,1.558,1.749,2.059,2.754,3.1h2.066l2.41-2.069c1.23-1.929.026-3.251,2.754-3.793,2.195,2.188,4.4,3.155,4.476,7.586-1.9,2.739-2.109,5.727-4.82,7.586-8.591,5.893-16.121.452-19.625-6.206-2.956-5.618-3.493-12.664-5.164-20-0.729-3.2-.041-6.77-0.689-9.655-1.084-4.827.3-10.094-.689-14.482V361.22c-1.071-4.755-.657-10.34-2.41-14.483-1.2-2.836-3.4-7.016-6.2-8.275-6.541-2.941-13.49,1.059-14.8,5.862q0.172,2.068.344,4.138c0.568,0.449.821,1.346,1.377,1.724C52.8,352.945,53.879,347,57,346.393a20.633,20.633,0,0,0,2.41,3.1l0.344,4.827c-1.583,5.452-10.076,9.625-16.87,6.552-3.083-1.395-5.693-5.329-6.886-8.62-2.247-6.2-.4-16.848,1.033-22.069,3.922-14.251,6.567-27.1,9.984-41.723,2.033-8.7-6.2-18.458-14.8-15.172-2.32.885-3.27,2.842-4.82,4.483-0.885,7.549,4.026,7.9,7.919,3.793a6.1,6.1,0,0,1,1.377.689,1.246,1.246,0,0,1,.344.69c1.391,1.716.467,5.4,0,7.241-1.728,1.207-2.994,3-5.164,3.793a15.225,15.225,0,0,1-7.23,0c-9.154-2.7-11.784-11.511-7.919-21.723,7.048-18.623,21.036-31.182,28.576-48.965,4.874-11.494-3.019-19.487-13.772-16.9a26.347,26.347,0,0,1-3.1,3.793,17.31,17.31,0,0,0,.344,3.793,8.609,8.609,0,0,1,1.721,1.38c2.854,0,3.359-.86,5.853-1.035a5.932,5.932,0,0,1,1.033,4.138c-1.471,1.969-1.774,4.465-4.132,5.517a11.464,11.464,0,0,1-6.541.345c-8.258-2.136-13.624-8.625-9.3-18.62,4.358-10.065,15.978-18.9,24.445-25.172,5.163-3.827,9.711-8.9,14.8-12.758a36.666,36.666,0,0,0,7.919-7.586c4.163-5.993,4.081-12.692-1.721-16.9-1.692-1.226-5.163-3.669-7.919-1.724-2.162.577-2.775,2.12-4.132,3.449q0.172,1.724.344,3.448a6.92,6.92,0,0,0,4.82,1.379c0.54-.429.176-0.221,0.689,0,1.323,0.409,1.6.762,1.721,2.414-0.532.674-.52,1.653-1.033,2.413l-3.443,3.1C36.013,159.2,34.9,141.028,45.642,132.95c10.075-7.577,23.692-11.724,36.151-16.9,7.4-3.073,14.7-5.218,20.658-9.655,4.931-3.674,6.752-9.982,2.754-15.862-0.963-1.416-1.685-2.847-3.443-3.448-1.714-1.394-5.395-.467-7.23,0L92.465,89.5c0.134,6.66,5.223,2.841,5.853,7.586-1.656,1.61-2.929,3.43-5.509,4.138-3.047.835-5.157-1.111-6.542-2.069-6.521-4.511-8.039-14.781-1.033-20,5.992-4.463,13.649-5.214,22.379-7.241,2.737-.636,5.823-0.134,8.263-0.69,4.6-1.048,9.819.29,14.116-.69h6.2c6.594-1.488,14.039-.749,19.281-3.448,2.307-1.188,5.134-3.114,6.2-5.517,2.285-5.167-.243-12.46-4.132-13.793-1.2-1.032-4.141-1.389-5.508-.345-1.676.528-2.532,1.787-2.755,3.793a16.715,16.715,0,0,1,.689,1.724c0.556,0.861,4.772,2.4,3.443,3.793-0.917,1.372-2.29,1.667-3.443,2.759-2.208.136-3.632,0.514-5.509-.345-3.6-1.65-8.1-8.715-5.853-14.827a14.53,14.53,0,0,1,8.608-8.276c4.866-1.783,13.361-1.254,18.247,0,3.138,0.805,5.6.522,8.607,1.379,8.512,2.424,17.087,4.276,25.822,6.9,3.779,1.133,12.683,3.882,18.248,2.414,10.374-2.738,13.254-20.686-.345-19.655-1.254,1.6-2.091,1.684-2.065,4.828a5.045,5.045,0,0,1,2.41,4.483l-1.033.345c-1.952,1.883-5.3.59-7.575,0-1.06-1.56-2.732-2.915-3.443-4.828-2.273-6.123,1.113-12.78,4.82-15.172C212.3,15.843,214.325,15.941,215.722,15.022Zm23.067,44.826c-1.227.713-3.464-.044-5.164,0.345l-16.182,2.069c-13.742,3.575-26.9,5.932-38.9,11.034C125.963,95.642,92.283,132.472,70.431,185.707c-4.724,11.509-6.13,24.44-9.3,37.585-1.041,4.322-.437,8.967-1.377,13.1v5.518c-1.155,5.378-.8,17.013.344,22.068l0.689,10.345c2.3,9.682,3.346,19.7,6.2,28.275,3.25,9.778,5.757,18.407,9.64,27.24a159.094,159.094,0,0,0,15.493,26.551c21.5,30.648,46.355,52.7,82.63,68.619,12.042,5.285,24.731,8.734,38.905,12.414l16.526,2.413h3.787c5.5,1.2,12.805.688,19.28,0.69h7.23L277.35,438.8c12.191-2.957,24.356-4.186,35.117-8.62,10.6-4.37,21.572-8.375,30.986-14.138,34.773-21.285,63.142-49.725,80.22-88.618,5.975-13.606,9.332-28.253,13.428-44.137q1.2-10,2.41-20v-6.9c1.332-6.216.256-21.286-1.033-26.9l-0.345-5.862c-1.175-4.94-1.331-10.161-2.754-15.172-3.192-11.241-6.4-22.274-10.673-32.068-21.89-50.138-57.518-83.776-108.452-104.825-11.212-4.633-23.752-6.532-36.494-9.655l-7.575-.69C262.624,59.036,250.161,59.869,238.789,59.848Z"/>
</svg>
